<?xml version="1.0" encoding="utf-8"?>
<!-- Generator: Adobe Illustrator 27.4.0, SVG Export Plug-In . SVG Version: 6.00 Build 0)  -->
<svg version="1.1" id="Layer_1" xmlns="http://www.w3.org/2000/svg" xmlns:xlink="http://www.w3.org/1999/xlink" x="0px" y="0px"
	 viewBox="0 0 841.89 1190.55" style="enable-background:new 0 0 841.89 1190.55;" xml:space="preserve">
<style type="text/css">
	.st0{fill:#76BF43;}
	.st1{fill:none;stroke:#FFFFFF;stroke-width:5.2736;stroke-miterlimit:10;}
	.st2{fill:#FFFFFF;}
</style>
<g>
	<rect class="st0" width="841.89" height="1190.55"/>
	<g>
		<line class="st1" x1="261.72" y1="259.15" x2="261.72" y2="931.4"/>
		<g>
			<g>
				<path class="st2" d="M347.06,342.06h40.15v57.88c0,29.2-14.6,45.89-42.76,45.89c-28.16,0-42.76-16.69-42.76-45.89v-94.9
					c0-29.2,14.6-45.89,42.76-45.89c28.16,0,42.76,16.69,42.76,45.89v17.73H360.1v-19.55c0-13.04-5.74-17.99-14.86-17.99
					c-9.12,0-14.86,4.95-14.86,17.99v98.55c0,13.04,5.74,17.73,14.86,17.73c9.12,0,14.86-4.69,14.86-17.73v-33.63h-13.04V342.06z"/>
				<path class="st2" d="M434.4,338.15h39.37v26.07H434.4v53.45h49.54v26.07h-78.22V261.23h78.22v26.07H434.4V338.15z"/>
				<path class="st2" d="M493.32,261.23h88.65v26.07h-29.98v156.43H523.3V287.31h-29.98V261.23z"/>
			</g>
			<g>
				<path class="st2" d="M342.63,501.94c27.9,0,42.24,16.69,42.24,45.89v5.74h-27.12V546c0-13.04-5.21-17.99-14.34-17.99
					c-9.12,0-14.34,4.95-14.34,17.99c0,37.54,56.06,44.58,56.06,96.73c0,29.2-14.6,45.89-42.76,45.89
					c-28.16,0-42.76-16.69-42.76-45.89v-11.21h27.12v13.04c0,13.04,5.74,17.73,14.86,17.73c9.12,0,14.86-4.69,14.86-17.73
					c0-37.54-56.06-44.58-56.06-96.73C300.39,518.62,314.73,501.94,342.63,501.94z"/>
				<path class="st2" d="M430.23,686.53h-28.68V504.02h28.68v78.22h32.59v-78.22h29.2v182.51h-29.2v-78.22h-32.59V686.53z"/>
				<path class="st2" d="M512.87,504.02h28.68v182.51h-28.68V504.02z"/>
				<path class="st2" d="M554.06,504.02h88.65v26.07h-29.98v156.43h-28.68V530.1h-29.98V504.02z"/>
			</g>
			<g>
				<path class="st2" d="M304.04,746.81h45.37c28.68,0,42.76,15.9,42.76,45.1v92.3c0,29.2-14.08,45.1-42.76,45.1h-45.37V746.81z
					 M332.72,772.89v130.36h16.16c9.12,0,14.6-4.69,14.6-17.73v-94.9c0-13.04-5.47-17.73-14.6-17.73H332.72z"/>
				<path class="st2" d="M408.07,790.61c0-29.2,15.38-45.89,43.54-45.89c28.16,0,43.54,16.69,43.54,45.89v94.9
					c0,29.2-15.38,45.89-43.54,45.89c-28.16,0-43.54-16.69-43.54-45.89V790.61z M436.75,887.34c0,13.04,5.74,17.99,14.86,17.99
					c9.13,0,14.86-4.95,14.86-17.99v-98.55c0-13.04-5.74-17.99-14.86-17.99c-9.12,0-14.86,4.95-14.86,17.99V887.34z"/>
				<path class="st2" d="M539.21,797.13v132.19h-25.81V746.81h35.98l29.46,109.24V746.81h25.55v182.51h-29.46L539.21,797.13z"/>
				<path class="st2" d="M653.65,823.73h39.37v26.07h-39.37v53.45h49.54v26.07h-78.22V746.81h78.22v26.07h-49.54V823.73z"/>
			</g>
		</g>
		<g>
			<path class="st2" d="M213.73,264.42v69.76h-69.76v-69.76H213.73 M219,259.15h-80.3v80.3H219V259.15L219,259.15z"/>
			<polygon class="st2" points="151.17,284.67 151.17,303.7 172.66,324.37 206.53,290.5 206.53,274.23 174.5,304.31 			"/>
		</g>
	</g>
</g>
</svg>
