<?xml version="1.0" encoding="utf-8"?>
<!-- Generator: Adobe Illustrator 27.4.0, SVG Export Plug-In . SVG Version: 6.00 Build 0)  -->
<svg version="1.1" id="Layer_1" xmlns="http://www.w3.org/2000/svg" xmlns:xlink="http://www.w3.org/1999/xlink" x="0px" y="0px"
	 viewBox="0 0 841.89 1190.55" style="enable-background:new 0 0 841.89 1190.55;" xml:space="preserve">
<style type="text/css">
	.st0{fill:#94CEBB;}
	.st1{fill:#F3F2F0;}
	.st2{fill:#DED728;}
</style>
<g>
	<rect y="0" class="st0" width="841.89" height="1190.55"/>
	<g>
		<g>
			<path class="st1" d="M229.06,386.05h-24.12v-64.33l-39,64.33h-17.42l-39-64.33v64.33H85.38v-93.82h32.57l39.27,66.21l39.27-66.21
				h32.57V386.05z"/>
			<path class="st1" d="M239.17,339.01c0-31.09,17.69-48.11,58.97-48.11c41.15,0,58.97,17.16,58.97,48.11
				c0,31.09-17.83,48.38-58.97,48.38C256.86,387.39,239.17,370.24,239.17,339.01z M332.98,339.01c0-19.03-9.65-27.88-34.85-27.88
				c-25.2,0-34.85,8.71-34.85,27.88c0,19.3,9.78,28.14,34.85,28.14C323.2,367.16,332.98,358.18,332.98,339.01z"/>
			<path class="st1" d="M484.9,292.24l-48.25,93.82h-32.97l-48.25-93.82h27.07l37.66,75.99l37.66-75.99H484.9z"/>
			<path class="st1" d="M516.21,311.4v19.03h75.05v17.42h-75.05v19.03h75.05v19.17h-99.18v-93.82h99.18v19.17H516.21z"/>
			<path class="st1" d="M109.51,460.16v23.86h67.01v20.37h-67.01v29.35H85.38v-93.82h99.18v20.24H109.51z"/>
			<path class="st1" d="M271.57,513.77h-56.16l-10.05,19.97h-26.54l48.38-93.82h32.57l48.52,93.82h-26.67L271.57,513.77z
				 M262.59,495.81l-19.03-38.06l-19.17,38.06H262.59z"/>
			<path class="st1" d="M333.25,501.44c0,9.92,8.04,14.47,38.6,14.47c25.33,0,32.97-2.81,32.97-10.19c0-7.77-5.36-9.11-35.78-10.59
				c-40.88-1.88-57.1-8.31-57.1-29.35c0-20.64,21.04-27.21,56.16-27.21c35.38,0,56.83,8.85,56.83,32.03H400.8
				c0-10.32-10.32-12.87-35.38-12.87c-23.72,0-29.35,2.28-29.35,9.25c0,7.24,5.63,8.58,32.97,10.19
				c36.99,2.01,59.91,4.02,59.91,27.74c0,25.06-23.72,30.16-58.44,30.16c-38.47,0-61.38-6.57-61.38-33.64H333.25z"/>
			<path class="st1" d="M548.07,460.16H502.5v73.58h-24.12v-73.58h-45.57v-20.24h115.26V460.16z"/>
			<path class="st1" d="M702.14,533.74c-8.98-4.29-17.29-8.17-24.93-11.93c-14.48,8.98-31.36,13.27-50.66,13.27
				c-33.51,0-47.04-10.59-47.04-27.21c0-17.16,14.34-23.59,28.28-26.4c-5.36-6.03-7.77-12.06-7.77-19.3
				c0-15.41,14.07-23.59,39.94-23.59c21.71,0,39.4,8.17,39.4,22.25c0,12.73-12.6,19.97-33.77,25.46c6.7,3.62,15.41,7.91,26.27,12.87
				c5.76-4.96,10.86-10.59,15.15-16.48l20.64,7.77c-4.29,6.97-9.11,13.14-14.21,18.36l19.03,8.18L702.14,533.74z M653.76,510.55
				c-14.34-7.1-25.33-13-33.64-18.76c-9.78,2.41-17.69,5.76-17.69,12.33c0,8.44,9.78,11.79,25.06,11.79
				C637.14,515.91,645.85,513.9,653.76,510.55z M622.93,464.85c0,3.75,2.28,7.64,8.04,12.2c14.34-3.08,25.46-7.1,25.46-13.67
				c0-5.09-6.17-7.91-16.48-7.91C629.63,455.47,622.93,458.28,622.93,464.85z"/>
			<path class="st1" d="M201.72,654.08c0,15.82-9.25,27.34-30.56,27.34H85.38V587.6h82.56c21.31,0,27.88,10.86,27.88,24.66
				c0,6.57-2.68,13-7.37,18.23C196.49,635.45,201.72,643.22,201.72,654.08z M109.51,624.46h49.72h0.13c6.43,0,12.33,0,12.33-9.78
				c0-9.65-5.9-9.65-12.46-9.65h-49.72V624.46z M177.59,652.87c0-9.92-5.9-9.92-12.33-9.92h-55.75v19.84h55.75
				C171.7,662.79,177.59,662.79,177.59,652.87z"/>
			<path class="st1" d="M301.02,653.54l17.29,27.88h-28.41l-15.14-25.06h-38.87v25.06h-24.12V587.6h73.71
				c21.31,0,35.92,13.54,35.92,34.44C321.39,637.33,313.62,648.59,301.02,653.54z M235.88,636.12h42.89c7.24,0,18.5,0,18.5-14.07
				c0-14.21-11.26-14.21-18.5-14.21h-42.89V636.12z"/>
			<path class="st1" d="M355.55,606.77v19.03h75.05v17.42h-75.05v19.03h75.05v19.17h-99.18V587.6h99.18v19.17H355.55z"/>
			<path class="st1" d="M530,661.45h-56.16l-10.05,19.97h-26.54l48.38-93.82h32.57l48.52,93.82h-26.67L530,661.45z M521.02,643.49
				l-19.03-38.06l-19.17,38.06H521.02z"/>
			<path class="st1" d="M644.89,629.29l56.83,52.14h-33.37l-41.28-39l-28.82,21.04v17.96h-24.12V587.6h24.12v48.65l66.88-48.65
				h36.59L644.89,629.29z"/>
			<path class="st1" d="M199.3,755.52h-45.57v73.58h-24.12v-73.58H84.04v-20.24H199.3V755.52z"/>
			<path class="st1" d="M331.28,735.29v93.82h-24.12v-36.72h-76.39v36.72h-24.12v-93.82h24.12v36.72h76.39v-36.72H331.28z"/>
			<path class="st1" d="M368.7,829.1h-24.12v-93.82h24.12V829.1z"/>
			<path class="st1" d="M502.53,735.29v93.82h-32.84l-63.93-70.36v70.36h-24.12v-93.82h32.7l64.06,70.5v-70.5H502.53z"/>
			<path class="st1" d="M570.32,778.85h59.51v50.26H612l-1.07-14.74c-8.85,9.65-22.92,16.08-42.89,16.08
				c-34.58,0-55.75-17.16-55.75-48.25c0-31.09,21.18-48.25,59.78-48.25c37.53,0,56.29,14.61,57.76,37.93H605.3
				c-1.34-7.1-7.77-17.69-33.24-17.69c-31.36,0-35.65,17.29-35.65,28.55c0,11.39,4.42,29.08,35.65,29.08
				c23.32,0,32.7-10.19,33.24-17.29h-34.98V778.85z"/>
			<path class="st1" d="M662.15,796.8c0,9.92,8.04,14.47,38.6,14.47c25.33,0,32.97-2.81,32.97-10.19c0-7.77-5.36-9.11-35.78-10.59
				c-40.88-1.88-57.1-8.31-57.1-29.35c0-20.64,21.04-27.21,56.16-27.21c35.38,0,56.83,8.85,56.83,32.03H729.7
				c0-10.32-10.32-12.87-35.38-12.87c-23.72,0-29.35,2.28-29.35,9.25c0,7.24,5.63,8.58,32.97,10.19
				c36.99,2.01,59.91,4.02,59.91,27.74c0,25.06-23.72,30.16-58.44,30.16c-38.47,0-61.38-6.57-61.38-33.64H662.15z"/>
		</g>
		<rect x="84.04" y="877.46" class="st2" width="665.71" height="22.19"/>
	</g>
</g>
</svg>
