<?xml version="1.0" encoding="utf-8"?>
<!-- Generator: Adobe Illustrator 27.4.0, SVG Export Plug-In . SVG Version: 6.00 Build 0)  -->
<svg version="1.1" id="Layer_1" xmlns="http://www.w3.org/2000/svg" xmlns:xlink="http://www.w3.org/1999/xlink" x="0px" y="0px"
	 viewBox="0 0 841.89 1190.55" style="enable-background:new 0 0 841.89 1190.55;" xml:space="preserve">
<style type="text/css">
	.st0{fill:url(#SVGID_1_);}
	.st1{fill:#76BF49;}
	.st2{fill:#FFFFFF;}
	.st3{fill:#F3F2F0;}
</style>
<g>
	<linearGradient id="SVGID_1_" gradientUnits="userSpaceOnUse" x1="925.3474" y1="-49.4824" x2="-117.7983" y2="1283.9301">
		<stop  offset="0" style="stop-color:#48C5E2"/>
		<stop  offset="1" style="stop-color:#6F6DB1"/>
	</linearGradient>
	<rect y="0" class="st0" width="841.89" height="1190.55"/>
	<rect x="62.98" y="409.2" class="st1" width="498.74" height="139.37"/>
	<g>
		<g>
			<path class="st2" d="M783.68,553.34H58.2V404.42h725.48V553.34z M67.76,543.79h706.37V413.98H67.76V543.79z"/>
		</g>
		<g>
			<path class="st3" d="M93.5,440.96h30.38c4.44,0,8.46,0.75,12.07,2.24c3.61,1.49,6.69,3.52,9.26,6.09c2.57,2.57,4.54,5.57,5.93,9
				c1.39,3.43,2.08,7.09,2.08,10.98c0,3.82-0.69,7.46-2.08,10.93c-1.39,3.47-3.35,6.5-5.88,9.1c-2.53,2.6-5.62,4.68-9.26,6.24
				c-3.64,1.56-7.72,2.34-12.23,2.34h-12.07v19.04H93.5V440.96z M111.71,457.4v23.62h11.24c3.4,0,6.22-1.07,8.48-3.23
				c2.25-2.15,3.38-4.99,3.38-8.53c0-3.54-1.13-6.4-3.38-8.58c-2.26-2.19-5.08-3.28-8.48-3.28H111.71z"/>
			<path class="st3" d="M162.8,440.96h32.67c4.58,0,8.64,0.69,12.17,2.08c3.54,1.39,6.52,3.26,8.95,5.62
				c2.43,2.36,4.27,5.12,5.51,8.27c1.25,3.16,1.87,6.54,1.87,10.15c0,4.86-1.09,9.24-3.28,13.16c-2.19,3.92-5.19,6.99-9,9.21
				l14.15,27.47h-19.98l-10.72-22.79H180.9v22.79h-18.1V440.96z M180.9,457.5v20.19h13.21c3.88,0,6.75-0.99,8.58-2.97
				c1.84-1.98,2.76-4.39,2.76-7.23c0-3.12-0.94-5.57-2.81-7.34c-1.87-1.77-4.72-2.65-8.53-2.65H180.9z"/>
			<path class="st3" d="M270.49,517.95c-5.41,0-10.48-1.02-15.19-3.07c-4.72-2.05-8.83-4.82-12.33-8.32
				c-3.5-3.5-6.26-7.63-8.27-12.38c-2.01-4.75-3.02-9.83-3.02-15.24c0-5.41,1-10.47,3.02-15.19c2.01-4.72,4.77-8.84,8.27-12.38
				c3.5-3.54,7.61-6.33,12.33-8.38c4.72-2.05,9.78-3.07,15.19-3.07c5.41,0,10.47,1.02,15.19,3.07c4.72,2.05,8.84,4.84,12.38,8.38
				c3.54,3.54,6.31,7.67,8.32,12.38c2.01,4.72,3.02,9.78,3.02,15.19c0,5.41-1.01,10.49-3.02,15.24c-2.01,4.75-4.77,8.88-8.27,12.38
				c-3.5,3.5-7.61,6.28-12.33,8.32C281.07,516.93,275.97,517.95,270.49,517.95z M270.49,500.06c2.98,0,5.74-0.55,8.27-1.66
				c2.53-1.11,4.72-2.64,6.55-4.58c1.84-1.94,3.28-4.18,4.32-6.71c1.04-2.53,1.56-5.25,1.56-8.17c0-2.91-0.52-5.65-1.56-8.22
				c-1.04-2.57-2.5-4.82-4.37-6.76c-1.87-1.94-4.08-3.47-6.61-4.58c-2.53-1.11-5.25-1.66-8.17-1.66c-2.91,0-5.64,0.56-8.17,1.66
				c-2.53,1.11-4.7,2.64-6.5,4.58c-1.8,1.94-3.23,4.2-4.27,6.76c-1.04,2.57-1.56,5.31-1.56,8.22c0,2.91,0.5,5.64,1.51,8.17
				c1,2.53,2.43,4.77,4.27,6.71c1.84,1.94,4.01,3.47,6.5,4.58C264.77,499.5,267.5,500.06,270.49,500.06z"/>
			<path class="st3" d="M357.68,517.95c-6.17,0-11.72-1.04-16.65-3.12c-4.93-2.08-9.1-4.91-12.54-8.48
				c-3.43-3.57-6.07-7.72-7.91-12.43c-1.84-4.72-2.76-9.71-2.76-14.98c0-5.48,0.97-10.61,2.91-15.4c1.94-4.79,4.63-8.91,8.06-12.38
				c3.43-3.47,7.54-6.21,12.33-8.22c4.79-2.01,10.06-3.02,15.82-3.02c7.35,0,13.7,1.39,19.04,4.16c5.34,2.78,9.81,6.49,13.42,11.13
				l-15.19,10.72c-1.8-2.84-4.15-5.03-7.02-6.56c-2.88-1.53-6.26-2.29-10.15-2.29c-2.91,0-5.65,0.56-8.22,1.67
				c-2.57,1.11-4.8,2.64-6.71,4.58c-1.91,1.94-3.42,4.25-4.53,6.92c-1.11,2.67-1.66,5.57-1.66,8.69c0,3.26,0.52,6.21,1.56,8.84
				c1.04,2.64,2.51,4.93,4.42,6.87c1.91,1.94,4.18,3.43,6.82,4.47c2.64,1.04,5.52,1.56,8.64,1.56c4.37,0,8.05-1.04,11.03-3.12
				c2.98-2.08,5.13-4.99,6.45-8.74h-21.12v-16.86h40.79v8.64c0,4.99-0.88,9.77-2.65,14.31c-1.77,4.54-4.27,8.52-7.49,11.91
				c-3.23,3.4-7.11,6.1-11.65,8.12C368.17,516.95,363.16,517.95,357.68,517.95z"/>
			<path class="st3" d="M404.3,440.96h32.67c4.58,0,8.64,0.69,12.17,2.08c3.54,1.39,6.52,3.26,8.95,5.62
				c2.43,2.36,4.27,5.12,5.51,8.27c1.25,3.16,1.87,6.54,1.87,10.15c0,4.86-1.09,9.24-3.28,13.16c-2.19,3.92-5.19,6.99-9,9.21
				l14.15,27.47h-19.98l-10.72-22.79H422.4v22.79h-18.1V440.96z M422.4,457.5v20.19h13.21c3.88,0,6.75-0.99,8.58-2.97
				c1.84-1.98,2.76-4.39,2.76-7.23c0-3.12-0.94-5.57-2.81-7.34c-1.87-1.77-4.72-2.65-8.53-2.65H422.4z"/>
			<path class="st3" d="M474.84,440.96h52.44v16.86h-34.34v12.49h34.34v16.86h-34.34v12.9h34.34v16.86h-52.44V440.96z"/>
			<path class="st3" d="M567.34,517.95c-4.23,0-8.03-0.38-11.39-1.14c-3.37-0.76-6.42-1.82-9.16-3.17c-2.74-1.35-5.2-2.97-7.39-4.84
				c-2.19-1.87-4.18-3.88-5.98-6.03l15.61-12.49c2.22,3.4,4.85,6.03,7.91,7.91c3.05,1.87,6.73,2.81,11.03,2.81
				c3.12,0,5.48-0.66,7.08-1.98c1.59-1.32,2.39-3.02,2.39-5.1c0-1.25-0.31-2.29-0.94-3.12s-1.6-1.56-2.91-2.19
				c-1.32-0.62-2.95-1.2-4.89-1.72c-1.94-0.52-4.27-1.09-6.97-1.72c-2.78-0.62-5.59-1.4-8.43-2.34c-2.84-0.94-5.41-2.22-7.7-3.85
				c-2.29-1.63-4.16-3.73-5.62-6.3c-1.46-2.57-2.19-5.79-2.19-9.68c0-3.33,0.69-6.42,2.08-9.26c1.39-2.84,3.29-5.31,5.72-7.39
				c2.43-2.08,5.34-3.71,8.74-4.89c3.4-1.18,7.14-1.77,11.24-1.77c3.47,0,6.62,0.3,9.47,0.88c2.84,0.59,5.46,1.46,7.86,2.6
				c2.39,1.14,4.65,2.57,6.76,4.27c2.12,1.7,4.18,3.63,6.19,5.77l-14.57,11.34c-1.8-2.84-3.99-5.05-6.55-6.61
				c-2.57-1.56-5.76-2.34-9.57-2.34c-3.12,0-5.41,0.69-6.87,2.08c-1.46,1.39-2.19,2.95-2.19,4.68c0,1.18,0.36,2.15,1.09,2.91
				c0.73,0.76,1.77,1.4,3.12,1.92c1.35,0.52,2.98,1.01,4.89,1.46c1.91,0.45,4.01,0.95,6.29,1.51c2.84,0.62,5.72,1.4,8.64,2.34
				c2.91,0.94,5.57,2.26,7.96,3.95c2.39,1.7,4.35,3.87,5.88,6.5c1.53,2.64,2.29,6,2.29,10.09c0,3.61-0.73,6.92-2.19,9.94
				s-3.47,5.64-6.03,7.86c-2.57,2.22-5.62,3.95-9.16,5.2C575.36,517.33,571.5,517.95,567.34,517.95z"/>
			<path class="st3" d="M634.04,517.95c-4.23,0-8.03-0.38-11.39-1.14c-3.37-0.76-6.42-1.82-9.16-3.17c-2.74-1.35-5.2-2.97-7.39-4.84
				c-2.19-1.87-4.18-3.88-5.98-6.03l15.61-12.49c2.22,3.4,4.85,6.03,7.91,7.91c3.05,1.87,6.73,2.81,11.03,2.81
				c3.12,0,5.48-0.66,7.08-1.98c1.59-1.32,2.39-3.02,2.39-5.1c0-1.25-0.31-2.29-0.94-3.12s-1.6-1.56-2.91-2.19
				c-1.32-0.62-2.95-1.2-4.89-1.72c-1.94-0.52-4.27-1.09-6.97-1.72c-2.78-0.62-5.59-1.4-8.43-2.34c-2.84-0.94-5.41-2.22-7.7-3.85
				c-2.29-1.63-4.16-3.73-5.62-6.3c-1.46-2.57-2.19-5.79-2.19-9.68c0-3.33,0.69-6.42,2.08-9.26c1.39-2.84,3.29-5.31,5.72-7.39
				c2.43-2.08,5.34-3.71,8.74-4.89c3.4-1.18,7.14-1.77,11.24-1.77c3.47,0,6.62,0.3,9.47,0.88c2.84,0.59,5.46,1.46,7.86,2.6
				c2.39,1.14,4.65,2.57,6.76,4.27c2.12,1.7,4.18,3.63,6.19,5.77l-14.57,11.34c-1.8-2.84-3.99-5.05-6.55-6.61
				c-2.57-1.56-5.76-2.34-9.57-2.34c-3.12,0-5.41,0.69-6.87,2.08c-1.46,1.39-2.19,2.95-2.19,4.68c0,1.18,0.36,2.15,1.09,2.91
				c0.73,0.76,1.77,1.4,3.12,1.92c1.35,0.52,2.98,1.01,4.89,1.46c1.91,0.45,4.01,0.95,6.29,1.51c2.84,0.62,5.72,1.4,8.64,2.34
				c2.91,0.94,5.57,2.26,7.96,3.95c2.39,1.7,4.35,3.87,5.88,6.5c1.53,2.64,2.29,6,2.29,10.09c0,3.61-0.73,6.92-2.19,9.94
				s-3.47,5.64-6.03,7.86c-2.57,2.22-5.62,3.95-9.16,5.2C642.05,517.33,638.2,517.95,634.04,517.95z"/>
			<path class="st3" d="M670.98,507.86c0-3.05,0.94-5.53,2.81-7.44c1.87-1.91,4.33-2.86,7.39-2.86c3.05,0,5.52,0.95,7.39,2.86
				c1.87,1.91,2.81,4.39,2.81,7.44c0,3.05-0.94,5.51-2.81,7.39c-1.87,1.87-4.34,2.81-7.39,2.81c-3.12,0-5.6-0.94-7.44-2.81
				C671.9,513.37,670.98,510.91,670.98,507.86z"/>
			<path class="st3" d="M700.11,507.86c0-3.05,0.94-5.53,2.81-7.44c1.87-1.91,4.33-2.86,7.39-2.86c3.05,0,5.52,0.95,7.39,2.86
				c1.87,1.91,2.81,4.39,2.81,7.44c0,3.05-0.94,5.51-2.81,7.39c-1.87,1.87-4.34,2.81-7.39,2.81c-3.12,0-5.6-0.94-7.44-2.81
				C701.03,513.37,700.11,510.91,700.11,507.86z"/>
			<path class="st3" d="M729.25,507.86c0-3.05,0.94-5.53,2.81-7.44c1.87-1.91,4.33-2.86,7.39-2.86c3.05,0,5.52,0.95,7.39,2.86
				c1.87,1.91,2.81,4.39,2.81,7.44c0,3.05-0.94,5.51-2.81,7.39c-1.87,1.87-4.34,2.81-7.39,2.81c-3.12,0-5.6-0.94-7.44-2.81
				C730.16,513.37,729.25,510.91,729.25,507.86z"/>
		</g>
		<g>
			<path class="st3" d="M93.34,592.99h18.94l28.61,45.57v-45.57h17.27v75.96h-17.59l-29.86-47.76v47.76H93.34V592.99z"/>
			<path class="st3" d="M206.55,669.99c-5.41,0-10.48-1.02-15.19-3.07c-4.72-2.05-8.83-4.82-12.33-8.32
				c-3.5-3.5-6.26-7.63-8.27-12.38c-2.01-4.75-3.02-9.83-3.02-15.24s1-10.47,3.02-15.19c2.01-4.72,4.77-8.84,8.27-12.38
				c3.5-3.54,7.61-6.33,12.33-8.38c4.72-2.05,9.78-3.07,15.19-3.07c5.41,0,10.47,1.02,15.19,3.07c4.72,2.05,8.84,4.84,12.38,8.38
				c3.54,3.54,6.31,7.67,8.32,12.38c2.01,4.72,3.02,9.78,3.02,15.19s-1.01,10.49-3.02,15.24c-2.01,4.75-4.77,8.88-8.27,12.38
				c-3.5,3.5-7.61,6.28-12.33,8.32C217.13,668.96,212.03,669.99,206.55,669.99z M206.55,652.09c2.98,0,5.74-0.55,8.27-1.66
				c2.53-1.11,4.72-2.64,6.55-4.58c1.84-1.94,3.28-4.18,4.32-6.71c1.04-2.53,1.56-5.25,1.56-8.17c0-2.91-0.52-5.65-1.56-8.22
				c-1.04-2.57-2.5-4.82-4.37-6.76c-1.87-1.94-4.08-3.47-6.61-4.58c-2.53-1.11-5.25-1.66-8.17-1.66c-2.91,0-5.64,0.56-8.17,1.66
				c-2.53,1.11-4.7,2.64-6.5,4.58c-1.8,1.94-3.23,4.2-4.27,6.76c-1.04,2.57-1.56,5.31-1.56,8.22c0,2.91,0.5,5.64,1.51,8.17
				c1,2.53,2.43,4.77,4.27,6.71c1.84,1.94,4.01,3.47,6.5,4.58C200.83,651.54,203.57,652.09,206.55,652.09z"/>
			<path class="st3" d="M268.67,609.74h-20.6v-16.75h58.69v16.75h-20.39v59.21h-17.69V609.74z"/>
			<path class="st3" d="M93.34,704.35h30.38c4.44,0,8.46,0.75,12.07,2.24c3.61,1.49,6.69,3.52,9.26,6.09c2.57,2.57,4.54,5.57,5.93,9
				c1.39,3.43,2.08,7.09,2.08,10.98c0,3.82-0.69,7.46-2.08,10.93c-1.39,3.47-3.35,6.5-5.88,9.1c-2.53,2.6-5.62,4.68-9.26,6.24
				s-7.72,2.34-12.23,2.34h-12.07v19.04H93.34V704.35z M111.55,720.79v23.62h11.24c3.4,0,6.22-1.07,8.48-3.23
				c2.25-2.15,3.38-4.99,3.38-8.53c0-3.54-1.13-6.4-3.38-8.58c-2.26-2.19-5.08-3.28-8.48-3.28H111.55z"/>
			<path class="st3" d="M162.64,704.35h52.44v16.86h-34.34v12.49h34.34v16.86h-34.34v12.9h34.34v16.86h-52.44V704.35z"/>
			<path class="st3" d="M226,704.35h32.67c4.58,0,8.64,0.69,12.17,2.08c3.54,1.39,6.52,3.26,8.95,5.62
				c2.43,2.36,4.27,5.12,5.51,8.27c1.25,3.16,1.87,6.54,1.87,10.15c0,4.86-1.09,9.24-3.28,13.16c-2.19,3.92-5.19,6.99-9,9.21
				l14.15,27.47h-19.98l-10.72-22.79h-14.26v22.79H226V704.35z M244.11,720.9v20.19h13.21c3.88,0,6.75-0.99,8.58-2.97
				c1.84-1.98,2.76-4.39,2.76-7.23c0-3.12-0.94-5.57-2.81-7.34c-1.87-1.77-4.72-2.65-8.53-2.65H244.11z"/>
			<path class="st3" d="M296.55,704.35h52.23v17.06h-34.13v13.53h34.13v16.75h-34.13v28.61h-18.1V704.35z"/>
			<path class="st3" d="M359.6,704.35h52.44v16.86h-34.34v12.49h34.34v16.86h-34.34v12.9h34.34v16.86H359.6V704.35z"/>
			<path class="st3" d="M459.91,781.35c-5.83,0-11.13-1.02-15.92-3.07c-4.79-2.05-8.88-4.82-12.28-8.32
				c-3.4-3.5-6.03-7.63-7.91-12.38c-1.87-4.75-2.81-9.83-2.81-15.24c0-5.55,0.97-10.7,2.91-15.45c1.94-4.75,4.65-8.88,8.12-12.38
				c3.47-3.5,7.58-6.24,12.33-8.22c4.75-1.98,9.94-2.97,15.56-2.97c3.68,0,7.18,0.45,10.51,1.35c3.33,0.9,6.45,2.17,9.36,3.8
				c2.91,1.63,5.55,3.61,7.91,5.93c2.36,2.33,4.37,4.87,6.03,7.65l-15.92,10.09c-1.73-3.4-4.09-6.09-7.08-8.06
				c-2.98-1.98-6.55-2.97-10.72-2.97c-3.05,0-5.83,0.56-8.32,1.67c-2.5,1.11-4.65,2.62-6.45,4.53c-1.8,1.91-3.21,4.16-4.21,6.76
				c-1.01,2.6-1.51,5.36-1.51,8.27c0,2.91,0.48,5.64,1.46,8.17c0.97,2.53,2.36,4.75,4.16,6.66c1.8,1.91,3.94,3.42,6.4,4.53
				c2.46,1.11,5.22,1.67,8.27,1.67c4.58,0,8.39-1.16,11.45-3.49c3.05-2.32,5.37-5.29,6.97-8.9l16.75,8.95
				c-1.6,3.12-3.57,6-5.93,8.64c-2.36,2.64-5.01,4.91-7.96,6.82c-2.95,1.91-6.21,3.38-9.78,4.42
				C467.73,780.83,463.93,781.35,459.91,781.35z"/>
			<path class="st3" d="M519.95,721.11h-20.6v-16.75h58.69v16.75h-20.39v59.21h-17.69V721.11z"/>
			<path class="st3" d="M568.33,704.35h18.31v75.96h-18.31V704.35z"/>
			<path class="st3" d="M635.24,781.35c-5.41,0-10.48-1.02-15.19-3.07c-4.72-2.05-8.83-4.82-12.33-8.32
				c-3.5-3.5-6.26-7.63-8.27-12.38c-2.01-4.75-3.02-9.83-3.02-15.24c0-5.41,1-10.47,3.02-15.19c2.01-4.72,4.77-8.84,8.27-12.38
				c3.5-3.54,7.61-6.33,12.33-8.38c4.72-2.05,9.78-3.07,15.19-3.07s10.47,1.02,15.19,3.07c4.72,2.05,8.84,4.84,12.38,8.38
				c3.54,3.54,6.31,7.66,8.32,12.38c2.01,4.72,3.02,9.78,3.02,15.19c0,5.41-1.01,10.49-3.02,15.24c-2.01,4.75-4.77,8.88-8.27,12.38
				c-3.5,3.5-7.61,6.28-12.33,8.32C645.81,780.33,640.71,781.35,635.24,781.35z M635.24,763.46c2.98,0,5.74-0.55,8.27-1.66
				c2.53-1.11,4.72-2.64,6.55-4.58c1.84-1.94,3.28-4.18,4.32-6.71c1.04-2.53,1.56-5.25,1.56-8.17c0-2.91-0.52-5.65-1.56-8.22
				c-1.04-2.57-2.5-4.82-4.37-6.76c-1.87-1.94-4.08-3.47-6.61-4.58c-2.53-1.11-5.25-1.67-8.17-1.67c-2.91,0-5.64,0.56-8.17,1.67
				c-2.53,1.11-4.7,2.64-6.5,4.58c-1.8,1.94-3.23,4.2-4.27,6.76c-1.04,2.57-1.56,5.31-1.56,8.22c0,2.91,0.5,5.64,1.51,8.17
				c1,2.53,2.43,4.77,4.27,6.71c1.84,1.94,4.01,3.47,6.5,4.58C629.51,762.9,632.25,763.46,635.24,763.46z"/>
			<path class="st3" d="M683.72,704.35h18.94l28.61,45.57v-45.57h17.27v75.96h-17.59l-29.86-47.76v47.76h-17.38V704.35z"/>
		</g>
	</g>
</g>
</svg>
