<?xml version="1.0" encoding="utf-8"?>
<!-- Generator: Adobe Illustrator 27.4.0, SVG Export Plug-In . SVG Version: 6.00 Build 0)  -->
<svg version="1.1" id="Layer_1" xmlns="http://www.w3.org/2000/svg" xmlns:xlink="http://www.w3.org/1999/xlink" x="0px" y="0px"
	 viewBox="0 0 841.89 1190.55" style="enable-background:new 0 0 841.89 1190.55;" xml:space="preserve">
<style type="text/css">
	.st0{fill:#FFFFFF;}
	.st1{fill:#231F20;}
	.st2{fill:#1B75BB;}
	.st3{clip-path:url(#SVGID_00000027591455033605766170000006973570889965176472_);}
	.st4{fill:#F3BAA7;}
	.st5{fill:#141D2D;}
</style>
<g>
	<rect x="0" y="0" class="st0" width="841.89" height="1190.55"/>
	<g>
		<g>
			<path class="st1" d="M171.85,98.69h-9.64v-3.3h22.94v3.3h-9.69v28.41h-3.61V98.69z"/>
			<path class="st1" d="M211.69,112.9H194.7v14.21h-3.65V95.39h3.65v14.03h16.99V95.39h3.61v31.71h-3.61V112.9z"/>
			<path class="st1" d="M222.72,95.39h21.07v3.43h-17.46v10.64h17.46v3.43h-17.46v10.73h17.46v3.48h-21.07V95.39z"/>
			<path class="st1" d="M261.12,95.39h13.55c1.48,0,2.82,0.2,4.02,0.59c1.2,0.39,2.24,0.96,3.11,1.69c0.87,0.74,1.53,1.63,2,2.67
				c0.46,1.04,0.7,2.2,0.7,3.48c0,1.54-0.36,2.9-1.06,4.08c-0.71,1.19-1.76,2.11-3.15,2.78c1.56,0.64,2.76,1.59,3.61,2.87
				c0.84,1.27,1.26,2.81,1.26,4.6c0,1.39-0.24,2.64-0.72,3.74s-1.16,2.04-2.04,2.82c-0.88,0.78-1.94,1.38-3.17,1.78
				c-1.23,0.41-2.6,0.61-4.11,0.61h-13.99V95.39z M264.73,98.69v10.43h10.21c1.94,0,3.42-0.5,4.43-1.5s1.52-2.27,1.52-3.8
				c0-1.53-0.56-2.77-1.67-3.71c-1.12-0.94-2.64-1.41-4.58-1.41H264.73z M264.73,112.46v11.29h10.34c1.97,0,3.53-0.53,4.69-1.59
				c1.16-1.06,1.74-2.41,1.74-4.06c0-1.68-0.56-3.04-1.67-4.08c-1.12-1.04-2.76-1.56-4.93-1.56H264.73z"/>
			<path class="st1" d="M291.23,95.39h21.07v3.43h-17.46v10.64h17.46v3.43h-17.46v10.73h17.46v3.48h-21.07V95.39z"/>
			<path class="st1" d="M330.45,127.54c-3.21,0-5.93-0.6-8.15-1.8c-2.21-1.2-4.06-2.8-5.54-4.8l3.13-2.48
				c2.4,3.79,5.89,5.69,10.47,5.69c2.46,0,4.33-0.56,5.6-1.67c1.27-1.11,1.91-2.56,1.91-4.32c0-1.04-0.26-1.9-0.78-2.56
				c-0.52-0.67-1.21-1.22-2.06-1.65c-0.86-0.43-1.84-0.78-2.95-1.04c-1.12-0.26-2.27-0.52-3.45-0.78c-1.25-0.26-2.47-0.56-3.67-0.89
				c-1.2-0.33-2.28-0.8-3.24-1.41s-1.73-1.39-2.32-2.35c-0.59-0.96-0.89-2.2-0.89-3.74c0-1.22,0.25-2.36,0.76-3.43
				c0.51-1.07,1.23-2,2.17-2.78c0.94-0.78,2.06-1.4,3.37-1.87c1.3-0.46,2.77-0.7,4.39-0.7c2.75,0,5.08,0.51,6.97,1.52
				c1.9,1.01,3.54,2.38,4.93,4.08l-2.95,2.3c-0.98-1.45-2.18-2.58-3.58-3.41c-1.41-0.83-3.19-1.24-5.37-1.24
				c-2.43,0-4.21,0.51-5.32,1.52c-1.12,1.01-1.67,2.32-1.67,3.91c0,0.96,0.22,1.73,0.65,2.32c0.43,0.59,1.03,1.08,1.78,1.46
				s1.64,0.68,2.65,0.91c1.01,0.23,2.1,0.48,3.26,0.74c1.25,0.26,2.53,0.57,3.84,0.93c1.32,0.36,2.5,0.87,3.56,1.52
				c1.06,0.65,1.93,1.51,2.61,2.56s1.02,2.4,1.02,4.02c0,1.25-0.26,2.44-0.78,3.58c-0.52,1.14-1.26,2.15-2.22,3.02
				c-0.96,0.87-2.12,1.56-3.5,2.06C333.71,127.28,332.16,127.54,330.45,127.54z"/>
			<path class="st1" d="M354.74,98.69h-9.64v-3.3h22.94v3.3h-9.69v28.41h-3.61V98.69z"/>
			<path class="st1" d="M382.76,95.39h3.78l6.99,26.28l8.91-26.28h3.26l8.43,26.37l7.65-26.37h3.69l-9.47,31.71h-3.56L404,100.78
				l-8.91,26.33h-3.65L382.76,95.39z"/>
			<path class="st1" d="M436.89,95.39h3.74l12.56,31.71h-3.78l-3.08-7.95H431.2l-3.04,7.95h-3.82L436.89,95.39z M432.54,115.72
				h12.42l-6.26-16.03L432.54,115.72z"/>
			<path class="st1" d="M462.13,114.07l-11.25-18.68h4.08l8.99,15.2l9.12-15.2h4.04l-11.38,18.64v13.08h-3.61V114.07z"/>
			<path class="st1" d="M500.92,98.69h-9.64v-3.3h22.94v3.3h-9.69v28.41h-3.61V98.69z"/>
			<path class="st1" d="M532.2,127.54c-2.32,0-4.47-0.43-6.45-1.28c-1.98-0.85-3.7-2.02-5.15-3.5s-2.58-3.2-3.41-5.17
				c-0.83-1.97-1.24-4.08-1.24-6.34s0.43-4.37,1.28-6.34c0.85-1.97,2.02-3.69,3.5-5.17c1.48-1.48,3.2-2.64,5.17-3.5
				c1.97-0.85,4.07-1.28,6.3-1.28c2.26,0,4.37,0.43,6.34,1.28c1.97,0.85,3.69,2.02,5.17,3.5c1.48,1.48,2.64,3.2,3.48,5.17
				c0.84,1.97,1.26,4.08,1.26,6.34c0,2.23-0.43,4.33-1.28,6.3c-0.85,1.97-2.02,3.69-3.5,5.17c-1.48,1.48-3.2,2.65-5.17,3.52
				C536.53,127.1,534.43,127.54,532.2,127.54z M532.2,124.02c1.77,0,3.42-0.33,4.97-1c1.55-0.67,2.89-1.58,4.02-2.74
				c1.13-1.16,2.02-2.51,2.67-4.06c0.65-1.55,0.98-3.21,0.98-4.97c0-1.77-0.33-3.42-0.98-4.97c-0.65-1.55-1.54-2.9-2.67-4.06
				c-1.13-1.16-2.47-2.08-4.02-2.76c-1.55-0.68-3.21-1.02-4.97-1.02s-3.42,0.34-4.95,1.02c-1.54,0.68-2.88,1.6-4.02,2.76
				c-1.14,1.16-2.04,2.51-2.69,4.06c-0.65,1.55-0.98,3.21-0.98,4.97c0,1.77,0.33,3.43,0.98,4.97c0.65,1.55,1.54,2.9,2.67,4.06
				c1.13,1.16,2.46,2.07,4,2.74C528.74,123.68,530.4,124.02,532.2,124.02z"/>
			<path class="st1" d="M565.52,95.39h9.3c2.46,0,4.71,0.41,6.75,1.22c2.04,0.81,3.78,1.93,5.21,3.35c1.43,1.42,2.55,3.09,3.34,5.02
				c0.8,1.93,1.2,4.02,1.2,6.28s-0.41,4.36-1.24,6.3c-0.83,1.94-1.97,3.61-3.43,5.02c-1.46,1.4-3.19,2.51-5.19,3.32
				c-2,0.81-4.17,1.22-6.52,1.22h-9.43V95.39z M569.17,98.69v25.02h5.43c1.91,0,3.67-0.32,5.28-0.96c1.61-0.64,2.98-1.51,4.13-2.63
				c1.14-1.11,2.04-2.43,2.69-3.95s0.98-3.16,0.98-4.93c0-1.8-0.3-3.46-0.91-5c-0.61-1.53-1.48-2.86-2.63-3.97
				c-1.14-1.11-2.54-1.99-4.17-2.63c-1.64-0.64-3.47-0.96-5.5-0.96H569.17z"/>
			<path class="st1" d="M613.17,127.54c-2.32,0-4.47-0.43-6.45-1.28c-1.98-0.85-3.7-2.02-5.15-3.5s-2.58-3.2-3.41-5.17
				c-0.83-1.97-1.24-4.08-1.24-6.34s0.43-4.37,1.28-6.34c0.85-1.97,2.02-3.69,3.5-5.17c1.48-1.48,3.2-2.64,5.17-3.5
				c1.97-0.85,4.07-1.28,6.3-1.28c2.26,0,4.37,0.43,6.34,1.28c1.97,0.85,3.69,2.02,5.17,3.5c1.48,1.48,2.64,3.2,3.48,5.17
				c0.84,1.97,1.26,4.08,1.26,6.34c0,2.23-0.43,4.33-1.28,6.3c-0.85,1.97-2.02,3.69-3.5,5.17c-1.48,1.48-3.2,2.65-5.17,3.52
				C617.5,127.1,615.4,127.54,613.17,127.54z M613.17,124.02c1.77,0,3.42-0.33,4.97-1c1.55-0.67,2.89-1.58,4.02-2.74
				c1.13-1.16,2.02-2.51,2.67-4.06c0.65-1.55,0.98-3.21,0.98-4.97c0-1.77-0.33-3.42-0.98-4.97c-0.65-1.55-1.54-2.9-2.67-4.06
				c-1.13-1.16-2.47-2.08-4.02-2.76c-1.55-0.68-3.21-1.02-4.97-1.02s-3.42,0.34-4.95,1.02c-1.54,0.68-2.88,1.6-4.02,2.76
				c-1.14,1.16-2.04,2.51-2.69,4.06c-0.65,1.55-0.98,3.21-0.98,4.97c0,1.77,0.33,3.43,0.98,4.97c0.65,1.55,1.54,2.9,2.67,4.06
				c1.13,1.16,2.46,2.07,4,2.74C609.71,123.68,611.38,124.02,613.17,124.02z"/>
			<path class="st1" d="M646.84,95.39h3.61v31.71h-3.61V95.39z"/>
			<path class="st1" d="M666.39,98.69h-9.64v-3.3h22.94v3.3H670v28.41h-3.61V98.69z"/>
		</g>
		<g>
			<path class="st1" d="M168.94,162.4h7.79v68.53h-7.79V162.4z"/>
			<path class="st1" d="M217.38,231.87c-6.95,0-12.81-1.3-17.6-3.9c-4.79-2.6-8.78-6.05-11.97-10.37l6.76-5.35
				c5.19,8.2,12.74,12.3,22.62,12.3c5.32,0,9.36-1.2,12.11-3.61c2.75-2.41,4.13-5.52,4.13-9.34c0-2.25-0.56-4.1-1.69-5.54
				c-1.13-1.44-2.61-2.63-4.46-3.57c-1.85-0.94-3.98-1.69-6.38-2.25c-2.41-0.56-4.9-1.13-7.46-1.69c-2.69-0.56-5.34-1.2-7.93-1.92
				c-2.6-0.72-4.93-1.74-6.99-3.05c-2.07-1.31-3.74-3-5.02-5.07c-1.28-2.06-1.92-4.75-1.92-8.07c0-2.63,0.55-5.1,1.64-7.42
				c1.09-2.31,2.66-4.32,4.69-6.01c2.03-1.69,4.46-3.03,7.28-4.04c2.82-1,5.98-1.5,9.48-1.5c5.94,0,10.97,1.1,15.07,3.29
				c4.1,2.19,7.65,5.13,10.65,8.82l-6.38,4.98c-2.13-3.13-4.71-5.59-7.75-7.37c-3.04-1.78-6.9-2.68-11.59-2.68
				c-5.26,0-9.09,1.1-11.5,3.29c-2.41,2.19-3.61,5.01-3.61,8.45c0,2.07,0.47,3.74,1.41,5.02c0.94,1.28,2.22,2.33,3.85,3.14
				c1.63,0.81,3.54,1.47,5.73,1.97c2.19,0.5,4.54,1.03,7.04,1.6c2.69,0.56,5.46,1.24,8.31,2.02c2.85,0.78,5.41,1.88,7.7,3.29
				c2.28,1.41,4.16,3.25,5.63,5.54c1.47,2.29,2.21,5.18,2.21,8.68c0,2.69-0.56,5.27-1.69,7.74c-1.13,2.47-2.72,4.65-4.79,6.52
				s-4.58,3.36-7.56,4.46C224.41,231.32,221.08,231.87,217.38,231.87z"/>
			<path class="st2" d="M292.1,177.51h-18.59V162.4h52.95v15.11h-18.4v53.41H292.1V177.51z"/>
			<path class="st2" d="M363.92,231.87c-4.88,0-9.45-0.92-13.71-2.77c-4.26-1.85-7.96-4.35-11.12-7.51
				c-3.16-3.16-5.65-6.88-7.46-11.17c-1.82-4.29-2.72-8.87-2.72-13.75c0-4.88,0.91-9.45,2.72-13.71c1.81-4.26,4.3-7.98,7.46-11.17
				c3.16-3.19,6.87-5.71,11.12-7.56c4.25-1.85,8.82-2.77,13.71-2.77s9.45,0.92,13.71,2.77c4.25,1.85,7.98,4.37,11.17,7.56
				c3.19,3.19,5.69,6.92,7.51,11.17c1.81,4.26,2.72,8.82,2.72,13.71c0,4.88-0.91,9.47-2.72,13.75c-1.82,4.29-4.3,8.01-7.46,11.17
				c-3.16,3.16-6.87,5.66-11.12,7.51C373.46,230.94,368.86,231.87,363.92,231.87z M363.92,215.72c2.69,0,5.18-0.5,7.46-1.5
				c2.28-1,4.25-2.38,5.91-4.13c1.66-1.75,2.96-3.77,3.9-6.06c0.94-2.28,1.41-4.74,1.41-7.37c0-2.63-0.47-5.1-1.41-7.42
				c-0.94-2.31-2.25-4.35-3.94-6.1c-1.69-1.75-3.68-3.13-5.96-4.13c-2.29-1-4.74-1.5-7.37-1.5c-2.63,0-5.08,0.5-7.37,1.5
				c-2.29,1-4.24,2.38-5.87,4.13c-1.63,1.75-2.91,3.79-3.85,6.1c-0.94,2.32-1.41,4.79-1.41,7.42c0,2.63,0.45,5.08,1.36,7.37
				c0.91,2.29,2.19,4.3,3.85,6.06c1.66,1.75,3.61,3.13,5.87,4.13C358.75,215.22,361.23,215.72,363.92,215.72z"/>
			<path class="st2" d="M428.97,162.4h24.31c5.32,0,10.17,0.88,14.55,2.63c4.38,1.75,8.13,4.16,11.26,7.23
				c3.13,3.07,5.55,6.68,7.28,10.84c1.72,4.16,2.58,8.68,2.58,13.56c0,4.88-0.89,9.42-2.68,13.61c-1.78,4.19-4.24,7.81-7.37,10.84
				c-3.13,3.04-6.87,5.43-11.22,7.18c-4.35,1.75-9.06,2.63-14.13,2.63h-24.59V162.4z M445.31,177.61v38.02h7.51
				c3,0,5.71-0.48,8.12-1.46c2.41-0.97,4.47-2.31,6.2-4.04c1.72-1.72,3.04-3.74,3.94-6.05c0.91-2.31,1.36-4.79,1.36-7.42
				c0-2.69-0.44-5.19-1.31-7.51c-0.88-2.31-2.16-4.33-3.85-6.05c-1.69-1.72-3.77-3.07-6.24-4.04c-2.47-0.97-5.3-1.46-8.5-1.46
				H445.31z"/>
			<path class="st2" d="M531.57,231.87c-4.88,0-9.45-0.92-13.71-2.77c-4.26-1.85-7.96-4.35-11.12-7.51
				c-3.16-3.16-5.65-6.88-7.46-11.17c-1.82-4.29-2.72-8.87-2.72-13.75c0-4.88,0.91-9.45,2.72-13.71c1.81-4.26,4.3-7.98,7.46-11.17
				c3.16-3.19,6.87-5.71,11.12-7.56c4.25-1.85,8.82-2.77,13.71-2.77s9.45,0.92,13.71,2.77c4.25,1.85,7.98,4.37,11.17,7.56
				c3.19,3.19,5.69,6.92,7.51,11.17c1.81,4.26,2.72,8.82,2.72,13.71c0,4.88-0.91,9.47-2.72,13.75c-1.82,4.29-4.3,8.01-7.46,11.17
				c-3.16,3.16-6.87,5.66-11.12,7.51C541.12,230.94,536.52,231.87,531.57,231.87z M531.57,215.72c2.69,0,5.18-0.5,7.46-1.5
				c2.28-1,4.25-2.38,5.91-4.13c1.66-1.75,2.96-3.77,3.9-6.06c0.94-2.28,1.41-4.74,1.41-7.37c0-2.63-0.47-5.1-1.41-7.42
				c-0.94-2.31-2.25-4.35-3.94-6.1c-1.69-1.75-3.68-3.13-5.96-4.13c-2.29-1-4.74-1.5-7.37-1.5c-2.63,0-5.08,0.5-7.37,1.5
				c-2.29,1-4.24,2.38-5.87,4.13c-1.63,1.75-2.91,3.79-3.85,6.1c-0.94,2.32-1.41,4.79-1.41,7.42c0,2.63,0.45,5.08,1.36,7.37
				c0.91,2.29,2.19,4.3,3.85,6.06c1.66,1.75,3.61,3.13,5.87,4.13C526.41,215.22,528.88,215.72,531.57,215.72z"/>
			<path class="st1" d="M601.98,162.4h7.79v68.53h-7.79V162.4z"/>
			<path class="st1" d="M644.22,169.53h-20.84v-7.13h49.57v7.13h-20.93v61.39h-7.79V169.53z"/>
		</g>
	</g>
	<g>
		<defs>
			<rect id="SVGID_1_" x="0" y="0" width="841.89" height="1190.55"/>
		</defs>
		<clipPath id="SVGID_00000089534110428899324430000017926448053464397745_">
			<use xlink:href="#SVGID_1_"  style="overflow:visible;"/>
		</clipPath>
		<g style="clip-path:url(#SVGID_00000089534110428899324430000017926448053464397745_);">
			<g>
				<path class="st2" d="M1057.06,660.84c-30.28,0.36-30.39-18-60.68-18c-30.29,0-30.29,18-60.57,18c-30.29,0-30.29-18-60.57-18
					c-30.29,0-30.29,18-60.57,18c-30.29,0-30.29-18-60.57-18c-30.29,0-30.29,18-60.57,18c-30.28,0-30.28-18-60.57-18
					c-30.29,0-30.29,18-60.57,18c-30.28,0-30.28-18-60.57-18c-30.28,0-30.28,18-60.57,18c-30.29,0-30.29-18-60.57-18
					c-30.29,0-30.29,18-60.57,18c-30.29,0-30.29-18-60.57-18c-30.29,0-30.29,18-60.57,18c-30.29,0-30.29-18-60.58-18
					c-30.29,0-30.29,18-60.57,18c-30.29,0-30.29-18-60.57-18c-30.29,0-30.29,18-60.57,18c-30.29,0-30.29-18-60.58-18
					c-30.29,0-30.29,18-60.58,18c-30.29,0-30.19-17.64-60.47-18c-0.36,0-9.11,8.64-9.11,8.29c0-0.36,18-0.36,18-0.71
					c0-0.35-18-0.35-18-0.71c0-0.35,18-0.35,18-0.71c0-0.35-18-0.35-18-0.71c0-0.36,18-0.36,18-0.71c0-0.36-18-0.36-18-0.71
					c0-0.36,18-0.36,18-0.71c0-0.36-18-0.36-18-0.71c0-0.36,18-0.36,18-0.71c0-0.36-18-0.36-18-0.72c0-0.36,18-0.36,18-0.71
					c0-0.36-18-0.36-18-0.71c0-0.36,18-0.36,18-0.72c0-0.36-18-0.36-18-0.72c0-0.36,18-0.36,18-0.72c0-0.36-18-0.36-18-0.71
					c0-0.36,18-0.36,18-0.72c0-0.36-18-0.36-18-0.72c0-0.36,18-0.36,18-0.72s-9.47-9.72-9.11-9.72c30.28-0.36,30.39,18,60.68,18
					c30.29,0,30.29-18,60.57-18c30.29,0,30.29,18,60.57,18c30.29,0,30.29-18,60.57-18c30.29,0,30.29,18,60.57,18
					c30.29,0,30.29-18,60.57-18c30.28,0,30.28,18,60.57,18c30.29,0,30.29-18,60.57-18c30.28,0,30.28,18,60.57,18
					c30.28,0,30.28-18,60.57-18c30.29,0,30.29,18,60.57,18c30.29,0,30.29-18,60.57-18c30.29,0,30.29,18,60.57,18
					c30.29,0,30.29-18,60.57-18c30.29,0,30.29,18,60.58,18c30.29,0,30.29-18,60.57-18c30.29,0,30.29,18,60.57,18
					c30.29,0,30.29-18,60.57-18c30.29,0,30.29,18,60.58,18c30.29,0,30.29-18,60.58-18c30.29,0,30.19,17.64,60.47,18
					c0.36,0,9.11-8.64,9.11-8.29c0,0.36-18,0.36-18,0.71c0,0.35,18,0.35,18,0.71c0,0.35-18,0.35-18,0.71c0,0.35,18,0.35,18,0.71
					c0,0.36-18,0.36-18,0.71c0,0.36,18,0.36,18,0.72c0,0.36-18,0.36-18,0.71c0,0.36,18,0.36,18,0.71c0,0.36-18,0.36-18,0.71
					c0,0.36,18,0.36,18,0.72c0,0.36-18,0.36-18,0.71c0,0.36,18,0.36,18,0.71c0,0.36-18,0.36-18,0.72c0,0.36,18,0.36,18,0.72
					c0,0.36-18,0.36-18,0.72c0,0.36,18,0.36,18,0.71c0,0.36-18,0.36-18,0.72c0,0.36,18,0.36,18,0.72c0,0.36-18.01,0.76-17.99,1.12
					C1048.18,656.4,1057.42,660.84,1057.06,660.84z"/>
			</g>
			<g>
				<path class="st2" d="M1057.06,695.1c-30.28,0.36-30.39-18-60.68-18c-30.29,0-30.29,18-60.57,18c-30.29,0-30.29-18-60.57-18
					s-30.29,18-60.57,18c-30.29,0-30.29-18-60.57-18c-30.29,0-30.29,18-60.57,18c-30.28,0-30.28-18-60.57-18
					c-30.29,0-30.29,18-60.57,18c-30.28,0-30.28-18-60.57-18c-30.28,0-30.28,18-60.57,18c-30.29,0-30.29-18-60.57-18
					c-30.29,0-30.29,18-60.57,18c-30.29,0-30.29-18-60.57-18c-30.29,0-30.29,18-60.57,18c-30.29,0-30.29-18-60.58-18
					c-30.29,0-30.29,18-60.57,18c-30.29,0-30.29-18-60.57-18c-30.29,0-30.29,18-60.57,18c-30.29,0-30.29-18-60.58-18
					c-30.29,0-30.29,18-60.58,18s-30.19-17.64-60.47-18c-0.36,0-9.11,8.64-9.11,8.29c0-0.36,18-0.36,18-0.71c0-0.35-18-0.35-18-0.71
					c0-0.35,18-0.35,18-0.71c0-0.35-18-0.35-18-0.71c0-0.36,18-0.36,18-0.71c0-0.36-18-0.36-18-0.71c0-0.36,18-0.36,18-0.71
					c0-0.36-18-0.36-18-0.71c0-0.36,18-0.36,18-0.71c0-0.36-18-0.36-18-0.72c0-0.36,18-0.36,18-0.71s-18-0.36-18-0.71
					c0-0.36,18-0.36,18-0.72c0-0.36-18-0.36-18-0.72c0-0.36,18-0.36,18-0.72c0-0.36-18-0.36-18-0.71c0-0.36,18-0.36,18-0.72
					c0-0.36-18-0.36-18-0.72c0-0.36,18-0.36,18-0.72s-9.47-9.72-9.11-9.72c30.28-0.36,30.39,18,60.68,18c30.29,0,30.29-18,60.57-18
					c30.29,0,30.29,18,60.57,18c30.29,0,30.29-18,60.57-18c30.29,0,30.29,18,60.57,18c30.29,0,30.29-18,60.57-18
					c30.28,0,30.28,18,60.57,18c30.29,0,30.29-18,60.57-18c30.28,0,30.28,18,60.57,18c30.28,0,30.28-18,60.57-18
					c30.29,0,30.29,18,60.57,18c30.29,0,30.29-18,60.57-18c30.29,0,30.29,18,60.57,18c30.29,0,30.29-18,60.57-18
					c30.29,0,30.29,18,60.58,18c30.29,0,30.29-18,60.57-18c30.29,0,30.29,18,60.57,18c30.29,0,30.29-18,60.57-18
					c30.29,0,30.29,18,60.58,18c30.29,0,30.29-18,60.58-18c30.29,0,30.19,17.64,60.47,18c0.36,0,9.11-8.64,9.11-8.29
					c0,0.36-18,0.36-18,0.71c0,0.35,18,0.35,18,0.71c0,0.35-18,0.35-18,0.71c0,0.35,18,0.35,18,0.71c0,0.36-18,0.36-18,0.71
					c0,0.36,18,0.36,18,0.72c0,0.36-18,0.36-18,0.71c0,0.36,18,0.36,18,0.71c0,0.36-18,0.36-18,0.71c0,0.36,18,0.36,18,0.72
					c0,0.36-18,0.36-18,0.71s18,0.36,18,0.71c0,0.36-18,0.36-18,0.72c0,0.36,18,0.36,18,0.72c0,0.36-18,0.36-18,0.72
					c0,0.36,18,0.36,18,0.71c0,0.36-18,0.36-18,0.72c0,0.36,18,0.36,18,0.72c0,0.36-18.01,0.76-17.99,1.12
					C1048.18,690.66,1057.42,695.1,1057.06,695.1z"/>
			</g>
			<g>
				<path class="st2" d="M1057.06,729.37c-30.28,0.36-30.39-18-60.68-18c-30.29,0-30.29,18-60.57,18c-30.29,0-30.29-18-60.57-18
					s-30.29,18-60.57,18c-30.29,0-30.29-18-60.57-18c-30.29,0-30.29,18-60.57,18c-30.28,0-30.28-18-60.57-18
					c-30.29,0-30.29,18-60.57,18c-30.28,0-30.28-18-60.57-18c-30.28,0-30.28,18-60.57,18c-30.29,0-30.29-18-60.57-18
					c-30.29,0-30.29,18-60.57,18c-30.29,0-30.29-18-60.57-18c-30.29,0-30.29,18-60.57,18c-30.29,0-30.29-18-60.58-18
					c-30.29,0-30.29,18-60.57,18c-30.29,0-30.29-18-60.57-18c-30.29,0-30.29,18-60.57,18c-30.29,0-30.29-18-60.58-18
					c-30.29,0-30.29,18-60.58,18s-30.19-17.64-60.47-18c-0.36,0-9.11,8.64-9.11,8.29c0-0.36,18-0.36,18-0.71c0-0.35-18-0.35-18-0.71
					c0-0.35,18-0.35,18-0.71c0-0.35-18-0.35-18-0.71c0-0.36,18-0.36,18-0.71c0-0.36-18-0.36-18-0.71c0-0.36,18-0.36,18-0.71
					c0-0.36-18-0.36-18-0.71c0-0.36,18-0.36,18-0.71c0-0.36-18-0.36-18-0.72c0-0.36,18-0.36,18-0.71s-18-0.36-18-0.71
					c0-0.36,18-0.36,18-0.72c0-0.36-18-0.36-18-0.72c0-0.36,18-0.36,18-0.72c0-0.36-18-0.36-18-0.71c0-0.36,18-0.36,18-0.72
					c0-0.36-18-0.36-18-0.72c0-0.36,18-0.36,18-0.72c0-0.36-9.47-9.72-9.11-9.72c30.28-0.36,30.39,18,60.68,18
					c30.29,0,30.29-18,60.57-18c30.29,0,30.29,18,60.57,18c30.29,0,30.29-18,60.57-18c30.29,0,30.29,18,60.57,18
					c30.29,0,30.29-18,60.57-18c30.28,0,30.28,18,60.57,18c30.29,0,30.29-18,60.57-18c30.28,0,30.28,18,60.57,18
					c30.28,0,30.28-18,60.57-18c30.29,0,30.29,18,60.57,18c30.29,0,30.29-18,60.57-18c30.29,0,30.29,18,60.57,18
					c30.29,0,30.29-18,60.57-18c30.29,0,30.29,18,60.58,18c30.29,0,30.29-18,60.57-18c30.29,0,30.29,18,60.57,18
					c30.29,0,30.29-18,60.57-18c30.29,0,30.29,18,60.58,18c30.29,0,30.29-18,60.58-18c30.29,0,30.19,17.64,60.47,18
					c0.36,0,9.11-8.64,9.11-8.29c0,0.36-18,0.36-18,0.71c0,0.35,18,0.35,18,0.71c0,0.35-18,0.35-18,0.71c0,0.35,18,0.35,18,0.71
					c0,0.36-18,0.36-18,0.71c0,0.36,18,0.36,18,0.72c0,0.36-18,0.36-18,0.71c0,0.36,18,0.36,18,0.71c0,0.36-18,0.36-18,0.71
					c0,0.36,18,0.36,18,0.72c0,0.36-18,0.36-18,0.71s18,0.36,18,0.71c0,0.36-18,0.36-18,0.72c0,0.36,18,0.36,18,0.72
					c0,0.36-18,0.36-18,0.72c0,0.36,18,0.36,18,0.71c0,0.36-18,0.36-18,0.72c0,0.36,18,0.36,18,0.72c0,0.36-18.01,0.76-17.99,1.12
					C1048.18,724.92,1057.42,729.36,1057.06,729.37z"/>
			</g>
			<g>
				<path class="st2" d="M1057.06,763.63c-30.28,0.36-30.39-18-60.68-18c-30.29,0-30.29,18-60.57,18c-30.29,0-30.29-18-60.57-18
					s-30.29,18-60.57,18c-30.29,0-30.29-18-60.57-18c-30.29,0-30.29,18-60.57,18c-30.28,0-30.28-18-60.57-18
					c-30.29,0-30.29,18-60.57,18c-30.28,0-30.28-18-60.57-18c-30.28,0-30.28,18-60.57,18c-30.29,0-30.29-18-60.57-18
					c-30.29,0-30.29,18-60.57,18c-30.29,0-30.29-18-60.57-18c-30.29,0-30.29,18-60.57,18c-30.29,0-30.29-18-60.58-18
					c-30.29,0-30.29,18-60.57,18c-30.29,0-30.29-18-60.57-18c-30.29,0-30.29,18-60.57,18c-30.29,0-30.29-18-60.58-18
					c-30.29,0-30.29,18-60.58,18s-30.19-17.64-60.47-18c-0.36,0-9.11,8.64-9.11,8.29c0-0.36,18-0.36,18-0.71c0-0.35-18-0.35-18-0.71
					c0-0.35,18-0.35,18-0.71c0-0.35-18-0.35-18-0.71c0-0.36,18-0.36,18-0.71c0-0.36-18-0.36-18-0.71c0-0.36,18-0.36,18-0.71
					c0-0.36-18-0.36-18-0.71c0-0.36,18-0.36,18-0.71c0-0.36-18-0.36-18-0.72c0-0.36,18-0.36,18-0.71s-18-0.36-18-0.71
					c0-0.36,18-0.36,18-0.72c0-0.36-18-0.36-18-0.72c0-0.36,18-0.36,18-0.72c0-0.36-18-0.36-18-0.71c0-0.36,18-0.36,18-0.72
					c0-0.36-18-0.36-18-0.72c0-0.36,18-0.36,18-0.72c0-0.36-9.47-9.72-9.11-9.72c30.28-0.36,30.39,18,60.68,18
					c30.29,0,30.29-18,60.57-18c30.29,0,30.29,18,60.57,18c30.29,0,30.29-18,60.57-18c30.29,0,30.29,18,60.57,18
					c30.29,0,30.29-18,60.57-18c30.28,0,30.28,18,60.57,18c30.29,0,30.29-18,60.57-18c30.28,0,30.28,18,60.57,18
					c30.28,0,30.28-18,60.57-18c30.29,0,30.29,18,60.57,18c30.29,0,30.29-18,60.57-18c30.29,0,30.29,18,60.57,18
					c30.29,0,30.29-18,60.57-18c30.29,0,30.29,18,60.58,18c30.29,0,30.29-18,60.57-18c30.29,0,30.29,18,60.57,18
					c30.29,0,30.29-18,60.57-18c30.29,0,30.29,18,60.58,18c30.29,0,30.29-18,60.58-18c30.29,0,30.19,17.64,60.47,18
					c0.36,0,9.11-8.64,9.11-8.29c0,0.36-18,0.36-18,0.71c0,0.35,18,0.35,18,0.71c0,0.35-18,0.35-18,0.71c0,0.35,18,0.35,18,0.71
					c0,0.36-18,0.36-18,0.71c0,0.36,18,0.36,18,0.72c0,0.36-18,0.36-18,0.71c0,0.36,18,0.36,18,0.71c0,0.36-18,0.36-18,0.71
					c0,0.36,18,0.36,18,0.72c0,0.36-18,0.36-18,0.71s18,0.36,18,0.71c0,0.36-18,0.36-18,0.72c0,0.36,18,0.36,18,0.72
					c0,0.36-18,0.36-18,0.72c0,0.36,18,0.36,18,0.71c0,0.36-18,0.36-18,0.72c0,0.36,18,0.36,18,0.72c0,0.36-18.01,0.76-17.99,1.12
					C1048.18,759.18,1057.42,763.63,1057.06,763.63z"/>
			</g>
			<g>
				<path class="st2" d="M1057.06,797.89c-30.28,0.36-30.39-18-60.68-18c-30.29,0-30.29,18-60.57,18c-30.29,0-30.29-18-60.57-18
					s-30.29,18-60.57,18c-30.29,0-30.29-18-60.57-18c-30.29,0-30.29,18-60.57,18c-30.28,0-30.28-18-60.57-18
					c-30.29,0-30.29,18-60.57,18c-30.28,0-30.28-18-60.57-18c-30.28,0-30.28,18-60.57,18c-30.29,0-30.29-18-60.57-18
					c-30.29,0-30.29,18-60.57,18c-30.29,0-30.29-18-60.57-18c-30.29,0-30.29,18-60.57,18c-30.29,0-30.29-18-60.58-18
					c-30.29,0-30.29,18-60.57,18c-30.29,0-30.29-18-60.57-18c-30.29,0-30.29,18-60.57,18c-30.29,0-30.29-18-60.58-18
					c-30.29,0-30.29,18-60.58,18s-30.19-17.64-60.47-18c-0.36,0-9.11,8.64-9.11,8.29c0-0.36,18-0.36,18-0.71c0-0.35-18-0.35-18-0.71
					c0-0.35,18-0.35,18-0.71c0-0.35-18-0.35-18-0.71c0-0.36,18-0.36,18-0.71c0-0.36-18-0.36-18-0.71c0-0.36,18-0.36,18-0.71
					c0-0.36-18-0.36-18-0.71c0-0.36,18-0.36,18-0.71c0-0.36-18-0.36-18-0.72c0-0.36,18-0.36,18-0.71s-18-0.36-18-0.71
					c0-0.36,18-0.36,18-0.72c0-0.36-18-0.36-18-0.72c0-0.36,18-0.36,18-0.72c0-0.36-18-0.36-18-0.71c0-0.36,18-0.36,18-0.72
					c0-0.36-18-0.36-18-0.72c0-0.36,18-0.36,18-0.72c0-0.36-9.47-9.72-9.11-9.72c30.28-0.36,30.39,18,60.68,18
					c30.29,0,30.29-18,60.57-18c30.29,0,30.29,18,60.57,18c30.29,0,30.29-18,60.57-18c30.29,0,30.29,18,60.57,18
					c30.29,0,30.29-18,60.57-18c30.28,0,30.28,18,60.57,18c30.29,0,30.29-18,60.57-18c30.28,0,30.28,18,60.57,18
					c30.28,0,30.28-18,60.57-18c30.29,0,30.29,18,60.57,18c30.29,0,30.29-18,60.57-18c30.29,0,30.29,18,60.57,18
					c30.29,0,30.29-18,60.57-18c30.29,0,30.29,18,60.58,18c30.29,0,30.29-18,60.57-18c30.29,0,30.29,18,60.57,18
					c30.29,0,30.29-18,60.57-18c30.29,0,30.29,18,60.58,18c30.29,0,30.29-18,60.58-18c30.29,0,30.19,17.64,60.47,18
					c0.36,0,9.11-8.64,9.11-8.29c0,0.36-18,0.36-18,0.71c0,0.35,18,0.35,18,0.71c0,0.35-18,0.35-18,0.71c0,0.35,18,0.35,18,0.71
					c0,0.36-18,0.36-18,0.71c0,0.36,18,0.36,18,0.71c0,0.36-18,0.36-18,0.71c0,0.36,18,0.36,18,0.71c0,0.36-18,0.36-18,0.71
					c0,0.36,18,0.36,18,0.72c0,0.36-18,0.36-18,0.71s18,0.36,18,0.71c0,0.36-18,0.36-18,0.72c0,0.36,18,0.36,18,0.72
					c0,0.36-18,0.36-18,0.72c0,0.36,18,0.36,18,0.71c0,0.36-18,0.36-18,0.72c0,0.36,18,0.36,18,0.72c0,0.36-18.01,0.76-17.99,1.12
					C1048.18,793.45,1057.42,797.89,1057.06,797.89z"/>
			</g>
			<g>
				<path class="st2" d="M1057.06,832.16c-30.28,0.36-30.39-18-60.68-18c-30.29,0-30.29,18-60.57,18c-30.29,0-30.29-18-60.57-18
					s-30.29,18-60.57,18c-30.29,0-30.29-18-60.57-18c-30.29,0-30.29,18-60.57,18c-30.28,0-30.28-18-60.57-18
					c-30.29,0-30.29,18-60.57,18c-30.28,0-30.28-18-60.57-18c-30.28,0-30.28,18-60.57,18c-30.29,0-30.29-18-60.57-18
					c-30.29,0-30.29,18-60.57,18c-30.29,0-30.29-18-60.57-18c-30.29,0-30.29,18-60.57,18c-30.29,0-30.29-18-60.58-18
					c-30.29,0-30.29,18-60.57,18c-30.29,0-30.29-18-60.57-18c-30.29,0-30.29,18-60.57,18c-30.29,0-30.29-18-60.58-18
					c-30.29,0-30.29,18-60.58,18s-30.19-17.64-60.47-18c-0.36,0-9.11,8.64-9.11,8.29c0-0.36,18-0.36,18-0.71c0-0.35-18-0.35-18-0.71
					c0-0.35,18-0.35,18-0.71c0-0.35-18-0.35-18-0.71c0-0.36,18-0.36,18-0.71c0-0.36-18-0.36-18-0.71c0-0.36,18-0.36,18-0.71
					c0-0.36-18-0.36-18-0.71c0-0.36,18-0.36,18-0.71c0-0.36-18-0.36-18-0.72c0-0.36,18-0.36,18-0.71s-18-0.36-18-0.71
					c0-0.36,18-0.36,18-0.72c0-0.36-18-0.36-18-0.72c0-0.36,18-0.36,18-0.72c0-0.36-18-0.36-18-0.71c0-0.36,18-0.36,18-0.72
					c0-0.36-18-0.36-18-0.72c0-0.36,18-0.36,18-0.72c0-0.36-9.47-9.72-9.11-9.72c30.28-0.36,30.39,18,60.68,18
					c30.29,0,30.29-18,60.57-18c30.29,0,30.29,18,60.57,18c30.29,0,30.29-18,60.57-18c30.29,0,30.29,18,60.57,18
					c30.29,0,30.29-18,60.57-18c30.28,0,30.28,18,60.57,18c30.29,0,30.29-18,60.57-18c30.28,0,30.28,18,60.57,18
					c30.28,0,30.28-18,60.57-18c30.29,0,30.29,18,60.57,18c30.29,0,30.29-18,60.57-18c30.29,0,30.29,18,60.57,18
					c30.29,0,30.29-18,60.57-18c30.29,0,30.29,18,60.58,18c30.29,0,30.29-18,60.57-18c30.29,0,30.29,18,60.57,18
					c30.29,0,30.29-18,60.57-18c30.29,0,30.29,18,60.58,18c30.29,0,30.29-18,60.58-18c30.29,0,30.19,17.64,60.47,18
					c0.36,0,9.11-8.64,9.11-8.29c0,0.36-18,0.36-18,0.71c0,0.35,18,0.35,18,0.71c0,0.35-18,0.35-18,0.71c0,0.35,18,0.35,18,0.71
					c0,0.36-18,0.36-18,0.71c0,0.36,18,0.36,18,0.71c0,0.36-18,0.36-18,0.71c0,0.36,18,0.36,18,0.71c0,0.36-18,0.36-18,0.71
					c0,0.36,18,0.36,18,0.72c0,0.36-18,0.36-18,0.71s18,0.36,18,0.71c0,0.36-18,0.36-18,0.72c0,0.36,18,0.36,18,0.72
					c0,0.36-18,0.36-18,0.72c0,0.36,18,0.36,18,0.71c0,0.36-18,0.36-18,0.72c0,0.36,18,0.36,18,0.72c0,0.36-18.01,0.76-17.99,1.12
					C1048.18,827.71,1057.42,832.15,1057.06,832.16z"/>
			</g>
			<g>
				<path class="st2" d="M1057.06,866.42c-30.28,0.36-30.39-18-60.68-18c-30.29,0-30.29,18-60.57,18c-30.29,0-30.29-18-60.57-18
					s-30.29,18-60.57,18c-30.29,0-30.29-18-60.57-18c-30.29,0-30.29,18-60.57,18c-30.28,0-30.28-18-60.57-18
					c-30.29,0-30.29,18-60.57,18c-30.28,0-30.28-18-60.57-18c-30.28,0-30.28,18-60.57,18c-30.29,0-30.29-18-60.57-18
					c-30.29,0-30.29,18-60.57,18c-30.29,0-30.29-18-60.57-18c-30.29,0-30.29,18-60.57,18c-30.29,0-30.29-18-60.58-18
					c-30.29,0-30.29,18-60.57,18c-30.29,0-30.29-18-60.57-18c-30.29,0-30.29,18-60.57,18c-30.29,0-30.29-18-60.58-18
					c-30.29,0-30.29,18-60.58,18s-30.19-17.64-60.47-18c-0.36,0-9.11,8.64-9.11,8.29c0-0.36,18-0.36,18-0.71c0-0.35-18-0.35-18-0.71
					c0-0.35,18-0.35,18-0.71c0-0.35-18-0.35-18-0.71c0-0.36,18-0.36,18-0.71c0-0.36-18-0.36-18-0.72c0-0.36,18-0.36,18-0.71
					c0-0.36-18-0.36-18-0.71c0-0.36,18-0.36,18-0.71c0-0.36-18-0.36-18-0.72c0-0.36,18-0.36,18-0.71s-18-0.36-18-0.71
					c0-0.36,18-0.36,18-0.72c0-0.36-18-0.36-18-0.72c0-0.36,18-0.36,18-0.72c0-0.36-18-0.36-18-0.71c0-0.36,18-0.36,18-0.72
					c0-0.36-18-0.36-18-0.72c0-0.36,18-0.36,18-0.72c0-0.36-9.47-9.72-9.11-9.72c30.28-0.36,30.39,18,60.68,18
					c30.29,0,30.29-18,60.57-18c30.29,0,30.29,18,60.57,18c30.29,0,30.29-18,60.57-18c30.29,0,30.29,18,60.57,18
					c30.29,0,30.29-18,60.57-18c30.28,0,30.28,18,60.57,18c30.29,0,30.29-18,60.57-18c30.28,0,30.28,18,60.57,18
					c30.28,0,30.28-18,60.57-18c30.29,0,30.29,18,60.57,18c30.29,0,30.29-18,60.57-18c30.29,0,30.29,18,60.57,18
					c30.29,0,30.29-18,60.57-18c30.29,0,30.29,18,60.58,18c30.29,0,30.29-18,60.57-18c30.29,0,30.29,18,60.57,18
					c30.29,0,30.29-18,60.57-18c30.29,0,30.29,18,60.58,18c30.29,0,30.29-18,60.58-18c30.29,0,30.19,17.64,60.47,18
					c0.36,0,9.11-8.64,9.11-8.29c0,0.36-18,0.36-18,0.71c0,0.35,18,0.35,18,0.71c0,0.35-18,0.35-18,0.71c0,0.35,18,0.35,18,0.71
					c0,0.36-18,0.36-18,0.71c0,0.36,18,0.36,18,0.71c0,0.36-18,0.36-18,0.71c0,0.36,18,0.36,18,0.71c0,0.36-18,0.36-18,0.71
					c0,0.36,18,0.36,18,0.72c0,0.36-18,0.36-18,0.71s18,0.36,18,0.71c0,0.36-18,0.36-18,0.72c0,0.36,18,0.36,18,0.72
					c0,0.36-18,0.36-18,0.72c0,0.36,18,0.36,18,0.71c0,0.36-18,0.36-18,0.72c0,0.36,18,0.36,18,0.72c0,0.36-18.01,0.76-17.99,1.12
					C1048.18,861.97,1057.42,866.42,1057.06,866.42z"/>
			</g>
			<g>
				<path class="st2" d="M1057.06,900.68c-30.28,0.36-30.39-18-60.68-18c-30.29,0-30.29,18-60.57,18c-30.29,0-30.29-18-60.57-18
					s-30.29,18-60.57,18c-30.29,0-30.29-18-60.57-18c-30.29,0-30.29,18-60.57,18c-30.28,0-30.28-18-60.57-18
					c-30.29,0-30.29,18-60.57,18c-30.28,0-30.28-18-60.57-18c-30.28,0-30.28,18-60.57,18c-30.29,0-30.29-18-60.57-18
					c-30.29,0-30.29,18-60.57,18c-30.29,0-30.29-18-60.57-18c-30.29,0-30.29,18-60.57,18c-30.29,0-30.29-18-60.58-18
					c-30.29,0-30.29,18-60.57,18c-30.29,0-30.29-18-60.57-18c-30.29,0-30.29,18-60.57,18c-30.29,0-30.29-18-60.58-18
					c-30.29,0-30.29,18-60.58,18s-30.19-17.64-60.47-18c-0.36,0-9.11,8.64-9.11,8.29c0-0.36,18-0.36,18-0.71c0-0.35-18-0.35-18-0.71
					c0-0.35,18-0.35,18-0.71c0-0.35-18-0.35-18-0.71c0-0.36,18-0.36,18-0.71c0-0.36-18-0.36-18-0.72c0-0.36,18-0.36,18-0.71
					c0-0.36-18-0.36-18-0.71c0-0.36,18-0.36,18-0.71c0-0.36-18-0.36-18-0.72c0-0.36,18-0.36,18-0.71s-18-0.36-18-0.71
					c0-0.36,18-0.36,18-0.72c0-0.36-18-0.36-18-0.72c0-0.36,18-0.36,18-0.72c0-0.36-18-0.36-18-0.71c0-0.36,18-0.36,18-0.72
					c0-0.36-18-0.36-18-0.72c0-0.36,18-0.36,18-0.72s-9.47-9.72-9.11-9.72c30.28-0.36,30.39,18,60.68,18c30.29,0,30.29-18,60.57-18
					c30.29,0,30.29,18,60.57,18c30.29,0,30.29-18,60.57-18c30.29,0,30.29,18,60.57,18c30.29,0,30.29-18,60.57-18
					c30.28,0,30.28,18,60.57,18c30.29,0,30.29-18,60.57-18c30.28,0,30.28,18,60.57,18c30.28,0,30.28-18,60.57-18
					c30.29,0,30.29,18,60.57,18c30.29,0,30.29-18,60.57-18c30.29,0,30.29,18,60.57,18c30.29,0,30.29-18,60.57-18
					c30.29,0,30.29,18,60.58,18c30.29,0,30.29-18,60.57-18c30.29,0,30.29,18,60.57,18c30.29,0,30.29-18,60.57-18
					c30.29,0,30.29,18,60.58,18c30.29,0,30.29-18,60.58-18c30.29,0,30.19,17.64,60.47,18c0.36,0,9.11-8.64,9.11-8.29
					c0,0.36-18,0.36-18,0.71c0,0.35,18,0.35,18,0.71c0,0.35-18,0.35-18,0.71c0,0.35,18,0.35,18,0.71c0,0.36-18,0.36-18,0.71
					c0,0.36,18,0.36,18,0.71c0,0.36-18,0.36-18,0.71c0,0.36,18,0.36,18,0.71c0,0.36-18,0.36-18,0.71c0,0.36,18,0.36,18,0.72
					c0,0.36-18,0.36-18,0.71s18,0.36,18,0.71c0,0.36-18,0.36-18,0.72c0,0.36,18,0.36,18,0.72c0,0.36-18,0.36-18,0.72
					c0,0.36,18,0.36,18,0.71c0,0.36-18,0.36-18,0.72c0,0.36,18,0.36,18,0.72c0,0.36-18.01,0.76-17.99,1.12
					C1048.18,896.24,1057.42,900.68,1057.06,900.68z"/>
			</g>
			<g>
				<path class="st2" d="M1057.06,934.95c-30.28,0.36-30.39-18-60.68-18c-30.29,0-30.29,18-60.57,18c-30.29,0-30.29-18-60.57-18
					s-30.29,18-60.57,18c-30.29,0-30.29-18-60.57-18c-30.29,0-30.29,18-60.57,18c-30.28,0-30.28-18-60.57-18
					c-30.29,0-30.29,18-60.57,18c-30.28,0-30.28-18-60.57-18c-30.28,0-30.28,18-60.57,18c-30.29,0-30.29-18-60.57-18
					c-30.29,0-30.29,18-60.57,18c-30.29,0-30.29-18-60.57-18c-30.29,0-30.29,18-60.57,18c-30.29,0-30.29-18-60.58-18
					c-30.29,0-30.29,18-60.57,18c-30.29,0-30.29-18-60.57-18c-30.29,0-30.29,18-60.57,18c-30.29,0-30.29-18-60.58-18
					c-30.29,0-30.29,18-60.58,18s-30.19-17.64-60.47-18c-0.36,0-9.11,8.64-9.11,8.29c0-0.36,18-0.36,18-0.71c0-0.35-18-0.35-18-0.71
					c0-0.35,18-0.35,18-0.71c0-0.35-18-0.35-18-0.71c0-0.36,18-0.36,18-0.71c0-0.36-18-0.36-18-0.72c0-0.36,18-0.36,18-0.71
					c0-0.36-18-0.36-18-0.71c0-0.36,18-0.36,18-0.71c0-0.36-18-0.36-18-0.72c0-0.36,18-0.36,18-0.71s-18-0.36-18-0.71
					c0-0.36,18-0.36,18-0.72c0-0.36-18-0.36-18-0.72c0-0.36,18-0.36,18-0.72c0-0.36-18-0.36-18-0.71c0-0.36,18-0.36,18-0.72
					c0-0.36-18-0.36-18-0.72c0-0.36,18-0.36,18-0.72s-9.47-9.72-9.11-9.72c30.28-0.36,30.39,18,60.68,18c30.29,0,30.29-18,60.57-18
					c30.29,0,30.29,18,60.57,18c30.29,0,30.29-18,60.57-18c30.29,0,30.29,18,60.57,18c30.29,0,30.29-18,60.57-18
					c30.28,0,30.28,18,60.57,18c30.29,0,30.29-18,60.57-18c30.28,0,30.28,18,60.57,18c30.28,0,30.28-18,60.57-18
					c30.29,0,30.29,18,60.57,18c30.29,0,30.29-18,60.57-18c30.29,0,30.29,18,60.57,18c30.29,0,30.29-18,60.57-18
					c30.29,0,30.29,18,60.58,18c30.29,0,30.29-18,60.57-18c30.29,0,30.29,18,60.57,18c30.29,0,30.29-18,60.57-18
					c30.29,0,30.29,18,60.58,18c30.29,0,30.29-18,60.58-18c30.29,0,30.19,17.64,60.47,18c0.36,0,9.11-8.64,9.11-8.29
					c0,0.36-18,0.36-18,0.71c0,0.35,18,0.35,18,0.71c0,0.35-18,0.35-18,0.71c0,0.35,18,0.35,18,0.71c0,0.36-18,0.36-18,0.71
					c0,0.36,18,0.36,18,0.71c0,0.36-18,0.36-18,0.71c0,0.36,18,0.36,18,0.71c0,0.36-18,0.36-18,0.71c0,0.36,18,0.36,18,0.72
					c0,0.36-18,0.36-18,0.71s18,0.36,18,0.71c0,0.36-18,0.36-18,0.72c0,0.36,18,0.36,18,0.72c0,0.36-18,0.36-18,0.72
					c0,0.36,18,0.36,18,0.71c0,0.36-18,0.36-18,0.72c0,0.36,18,0.36,18,0.72c0,0.36-18.01,0.76-17.99,1.12
					C1048.18,930.5,1057.42,934.94,1057.06,934.95z"/>
			</g>
			<g>
				<path class="st2" d="M1057.06,969.21c-30.28,0.36-30.39-18-60.68-18c-30.29,0-30.29,18-60.57,18c-30.29,0-30.29-18-60.57-18
					c-30.29,0-30.29,18-60.57,18c-30.29,0-30.29-18-60.57-18c-30.29,0-30.29,18-60.57,18c-30.28,0-30.28-18-60.57-18
					c-30.29,0-30.29,18-60.57,18c-30.28,0-30.28-18-60.57-18c-30.28,0-30.28,18-60.57,18c-30.29,0-30.29-18-60.57-18
					c-30.29,0-30.29,18-60.57,18c-30.29,0-30.29-18-60.57-18c-30.29,0-30.29,18-60.57,18c-30.29,0-30.29-18-60.58-18
					c-30.29,0-30.29,18-60.57,18c-30.29,0-30.29-18-60.57-18c-30.29,0-30.29,18-60.57,18c-30.29,0-30.29-18-60.58-18
					c-30.29,0-30.29,18-60.58,18c-30.29,0-30.19-17.64-60.47-18c-0.36,0-9.11,8.64-9.11,8.29c0-0.36,18-0.36,18-0.71
					c0-0.35-18-0.35-18-0.71c0-0.35,18-0.35,18-0.71c0-0.35-18-0.35-18-0.71c0-0.36,18-0.36,18-0.71c0-0.36-18-0.36-18-0.71
					c0-0.36,18-0.36,18-0.71c0-0.36-18-0.36-18-0.71c0-0.36,18-0.36,18-0.71c0-0.36-18-0.36-18-0.72c0-0.36,18-0.36,18-0.71
					c0-0.36-18-0.36-18-0.71c0-0.36,18-0.36,18-0.72c0-0.36-18-0.36-18-0.72c0-0.36,18-0.36,18-0.72c0-0.36-18-0.36-18-0.71
					c0-0.36,18-0.36,18-0.72c0-0.36-18-0.36-18-0.72c0-0.36,18-0.36,18-0.72s-9.47-9.72-9.11-9.72c30.28-0.36,30.39,18,60.68,18
					c30.29,0,30.29-18,60.57-18c30.29,0,30.29,18,60.57,18c30.29,0,30.29-18,60.57-18c30.29,0,30.29,18,60.57,18
					c30.29,0,30.29-18,60.57-18c30.28,0,30.28,18,60.57,18c30.29,0,30.29-18,60.57-18c30.28,0,30.28,18,60.57,18
					c30.28,0,30.28-18,60.57-18c30.29,0,30.29,18,60.57,18c30.29,0,30.29-18,60.57-18c30.29,0,30.29,18,60.57,18
					c30.29,0,30.29-18,60.57-18c30.29,0,30.29,18,60.58,18c30.29,0,30.29-18,60.57-18c30.29,0,30.29,18,60.57,18
					c30.29,0,30.29-18,60.57-18c30.29,0,30.29,18,60.58,18c30.29,0,30.29-18,60.58-18c30.29,0,30.19,17.64,60.47,18
					c0.36,0,9.11-8.64,9.11-8.29c0,0.36-18,0.36-18,0.71c0,0.35,18,0.35,18,0.71c0,0.35-18,0.35-18,0.71c0,0.35,18,0.35,18,0.71
					c0,0.36-18,0.36-18,0.71c0,0.36,18,0.36,18,0.71c0,0.36-18,0.36-18,0.71c0,0.36,18,0.36,18,0.71c0,0.36-18,0.36-18,0.71
					c0,0.36,18,0.36,18,0.72c0,0.36-18,0.36-18,0.71c0,0.36,18,0.36,18,0.71c0,0.36-18,0.36-18,0.72c0,0.36,18,0.36,18,0.72
					c0,0.36-18,0.36-18,0.72c0,0.36,18,0.36,18,0.71c0,0.36-18,0.36-18,0.72c0,0.36,18,0.36,18,0.72c0,0.36-18.01,0.76-17.99,1.12
					C1048.18,964.76,1057.42,969.2,1057.06,969.21z"/>
			</g>
			<g>
				<path class="st2" d="M1057.06,1003.47c-30.28,0.36-30.39-18-60.68-18c-30.29,0-30.29,18-60.57,18c-30.29,0-30.29-18-60.57-18
					s-30.29,18-60.57,18c-30.29,0-30.29-18-60.57-18c-30.29,0-30.29,18-60.57,18c-30.28,0-30.28-18-60.57-18
					c-30.29,0-30.29,18-60.57,18c-30.28,0-30.28-18-60.57-18c-30.28,0-30.28,18-60.57,18c-30.29,0-30.29-18-60.57-18
					c-30.29,0-30.29,18-60.57,18c-30.29,0-30.29-18-60.57-18c-30.29,0-30.29,18-60.57,18c-30.29,0-30.29-18-60.58-18
					c-30.29,0-30.29,18-60.57,18c-30.29,0-30.29-18-60.57-18c-30.29,0-30.29,18-60.57,18c-30.29,0-30.29-18-60.58-18
					c-30.29,0-30.29,18-60.58,18s-30.19-17.64-60.47-18c-0.36,0-9.11,8.64-9.11,8.29c0-0.36,18-0.36,18-0.71c0-0.35-18-0.35-18-0.71
					c0-0.35,18-0.35,18-0.71c0-0.35-18-0.35-18-0.71c0-0.36,18-0.36,18-0.71c0-0.36-18-0.36-18-0.71c0-0.36,18-0.36,18-0.71
					c0-0.36-18-0.36-18-0.71c0-0.36,18-0.36,18-0.71c0-0.36-18-0.36-18-0.72c0-0.36,18-0.36,18-0.71c0-0.36-18-0.36-18-0.71
					c0-0.36,18-0.36,18-0.72c0-0.36-18-0.36-18-0.72c0-0.36,18-0.36,18-0.72c0-0.36-18-0.36-18-0.71c0-0.36,18-0.36,18-0.72
					c0-0.36-18-0.36-18-0.72c0-0.36,18-0.36,18-0.72s-9.47-9.72-9.11-9.72c30.28-0.36,30.39,18,60.68,18c30.29,0,30.29-18,60.57-18
					c30.29,0,30.29,18,60.57,18c30.29,0,30.29-18,60.57-18c30.29,0,30.29,18,60.57,18c30.29,0,30.29-18,60.57-18
					c30.28,0,30.28,18,60.57,18c30.29,0,30.29-18,60.57-18c30.28,0,30.28,18,60.57,18c30.28,0,30.28-18,60.57-18
					c30.29,0,30.29,18,60.57,18c30.29,0,30.29-18,60.57-18c30.29,0,30.29,18,60.57,18c30.29,0,30.29-18,60.57-18
					c30.29,0,30.29,18,60.58,18c30.29,0,30.29-18,60.57-18c30.29,0,30.29,18,60.57,18c30.29,0,30.29-18,60.57-18
					c30.29,0,30.29,18,60.58,18c30.29,0,30.29-18,60.58-18c30.29,0,30.19,17.64,60.47,18c0.36,0,9.11-8.64,9.11-8.29
					c0,0.36-18,0.36-18,0.71c0,0.35,18,0.35,18,0.71c0,0.35-18,0.35-18,0.71c0,0.35,18,0.35,18,0.71c0,0.36-18,0.36-18,0.71
					c0,0.36,18,0.36,18,0.72c0,0.36-18,0.36-18,0.71c0,0.36,18,0.36,18,0.71c0,0.36-18,0.36-18,0.71c0,0.36,18,0.36,18,0.72
					c0,0.36-18,0.36-18,0.71s18,0.36,18,0.71c0,0.36-18,0.36-18,0.72c0,0.36,18,0.36,18,0.72c0,0.36-18,0.36-18,0.72
					c0,0.36,18,0.36,18,0.71c0,0.36-18,0.36-18,0.72c0,0.36,18,0.36,18,0.72c0,0.36-18.01,0.76-17.99,1.12
					C1048.18,999.03,1057.42,1003.47,1057.06,1003.47z"/>
			</g>
			<g>
				<path class="st2" d="M1057.06,1037.74c-30.28,0.36-30.39-18-60.68-18c-30.29,0-30.29,18-60.57,18c-30.29,0-30.29-18-60.57-18
					s-30.29,18-60.57,18c-30.29,0-30.29-18-60.57-18c-30.29,0-30.29,18-60.57,18c-30.28,0-30.28-18-60.57-18
					c-30.29,0-30.29,18-60.57,18c-30.28,0-30.28-18-60.57-18c-30.28,0-30.28,18-60.57,18c-30.29,0-30.29-18-60.57-18
					c-30.29,0-30.29,18-60.57,18c-30.29,0-30.29-18-60.57-18c-30.29,0-30.29,18-60.57,18c-30.29,0-30.29-18-60.58-18
					c-30.29,0-30.29,18-60.57,18c-30.29,0-30.29-18-60.57-18c-30.29,0-30.29,18-60.57,18c-30.29,0-30.29-18-60.58-18
					c-30.29,0-30.29,18-60.58,18s-30.19-17.64-60.47-18c-0.36,0-9.11,8.64-9.11,8.29c0-0.36,18-0.36,18-0.71c0-0.35-18-0.35-18-0.71
					c0-0.35,18-0.35,18-0.71c0-0.35-18-0.35-18-0.71c0-0.36,18-0.36,18-0.71c0-0.36-18-0.36-18-0.72c0-0.36,18-0.36,18-0.71
					c0-0.36-18-0.36-18-0.71c0-0.36,18-0.36,18-0.71c0-0.36-18-0.36-18-0.72c0-0.36,18-0.36,18-0.71s-18-0.36-18-0.71
					c0-0.36,18-0.36,18-0.72c0-0.36-18-0.36-18-0.72c0-0.36,18-0.36,18-0.72c0-0.36-18-0.36-18-0.71c0-0.36,18-0.36,18-0.72
					c0-0.36-18-0.36-18-0.72c0-0.36,18-0.36,18-0.72s-9.47-9.72-9.11-9.72c30.28-0.36,30.39,18,60.68,18c30.29,0,30.29-18,60.57-18
					c30.29,0,30.29,18,60.57,18c30.29,0,30.29-18,60.57-18c30.29,0,30.29,18,60.57,18c30.29,0,30.29-18,60.57-18
					c30.28,0,30.28,18,60.57,18c30.29,0,30.29-18,60.57-18c30.28,0,30.28,18,60.57,18c30.28,0,30.28-18,60.57-18
					c30.29,0,30.29,18,60.57,18c30.29,0,30.29-18,60.57-18c30.29,0,30.29,18,60.57,18c30.29,0,30.29-18,60.57-18
					c30.29,0,30.29,18,60.58,18c30.29,0,30.29-18,60.57-18c30.29,0,30.29,18,60.57,18c30.29,0,30.29-18,60.57-18
					c30.29,0,30.29,18,60.58,18c30.29,0,30.29-18,60.58-18c30.29,0,30.19,17.64,60.47,18c0.36,0,9.11-8.64,9.11-8.29
					c0,0.36-18,0.36-18,0.71c0,0.35,18,0.35,18,0.71c0,0.35-18,0.35-18,0.71c0,0.35,18,0.35,18,0.71c0,0.36-18,0.36-18,0.71
					c0,0.36,18,0.36,18,0.72c0,0.36-18,0.36-18,0.71c0,0.36,18,0.36,18,0.71c0,0.36-18,0.36-18,0.71c0,0.36,18,0.36,18,0.72
					c0,0.36-18,0.36-18,0.71s18,0.36,18,0.71c0,0.36-18,0.36-18,0.72c0,0.36,18,0.36,18,0.72c0,0.36-18,0.36-18,0.72
					c0,0.36,18,0.36,18,0.71c0,0.36-18,0.36-18,0.72c0,0.36,18,0.36,18,0.72c0,0.36-18.01,0.76-17.99,1.12
					C1048.18,1033.29,1057.42,1037.73,1057.06,1037.74z"/>
			</g>
			<g>
				<path class="st2" d="M1057.06,1072c-30.28,0.36-30.39-18-60.68-18c-30.29,0-30.29,18-60.57,18c-30.29,0-30.29-18-60.57-18
					s-30.29,18-60.57,18c-30.29,0-30.29-18-60.57-18c-30.29,0-30.29,18-60.57,18c-30.28,0-30.28-18-60.57-18
					c-30.29,0-30.29,18-60.57,18c-30.28,0-30.28-18-60.57-18c-30.28,0-30.28,18-60.57,18c-30.29,0-30.29-18-60.57-18
					c-30.29,0-30.29,18-60.57,18c-30.29,0-30.29-18-60.57-18c-30.29,0-30.29,18-60.57,18c-30.29,0-30.29-18-60.58-18
					c-30.29,0-30.29,18-60.57,18c-30.29,0-30.29-18-60.57-18c-30.29,0-30.29,18-60.57,18c-30.29,0-30.29-18-60.58-18
					c-30.29,0-30.29,18-60.58,18s-30.19-17.64-60.47-18c-0.36,0-9.11,8.64-9.11,8.29c0-0.36,18-0.36,18-0.71c0-0.35-18-0.35-18-0.71
					c0-0.35,18-0.35,18-0.71c0-0.35-18-0.35-18-0.71c0-0.36,18-0.36,18-0.71c0-0.36-18-0.36-18-0.71c0-0.36,18-0.36,18-0.71
					c0-0.36-18-0.36-18-0.71c0-0.36,18-0.36,18-0.71c0-0.36-18-0.36-18-0.72c0-0.36,18-0.36,18-0.71c0-0.36-18-0.36-18-0.71
					c0-0.36,18-0.36,18-0.72c0-0.36-18-0.36-18-0.72c0-0.36,18-0.36,18-0.72c0-0.36-18-0.36-18-0.71c0-0.36,18-0.36,18-0.72
					c0-0.36-18-0.36-18-0.72c0-0.36,18-0.36,18-0.72c0-0.36-9.47-9.72-9.11-9.72c30.28-0.36,30.39,18,60.68,18
					c30.29,0,30.29-18,60.57-18c30.29,0,30.29,18,60.57,18c30.29,0,30.29-18,60.57-18c30.29,0,30.29,18,60.57,18
					c30.29,0,30.29-18,60.57-18c30.28,0,30.28,18,60.57,18c30.29,0,30.29-18,60.57-18c30.28,0,30.28,18,60.57,18
					c30.28,0,30.28-18,60.57-18c30.29,0,30.29,18,60.57,18c30.29,0,30.29-18,60.57-18c30.29,0,30.29,18,60.57,18
					c30.29,0,30.29-18,60.57-18c30.29,0,30.29,18,60.58,18c30.29,0,30.29-18,60.57-18c30.29,0,30.29,18,60.57,18
					c30.29,0,30.29-18,60.57-18c30.29,0,30.29,18,60.58,18c30.29,0,30.29-18,60.58-18c30.29,0,30.19,17.64,60.47,18
					c0.36,0,9.11-8.64,9.11-8.29c0,0.36-18,0.36-18,0.71c0,0.35,18,0.35,18,0.71c0,0.35-18,0.35-18,0.71c0,0.35,18,0.35,18,0.71
					c0,0.36-18,0.36-18,0.71c0,0.36,18,0.36,18,0.71c0,0.36-18,0.36-18,0.71c0,0.36,18,0.36,18,0.71c0,0.36-18,0.36-18,0.71
					c0,0.36,18,0.36,18,0.72c0,0.36-18,0.36-18,0.71c0,0.36,18,0.36,18,0.71c0,0.36-18,0.36-18,0.72c0,0.36,18,0.36,18,0.72
					c0,0.36-18,0.36-18,0.72c0,0.36,18,0.36,18,0.71c0,0.36-18,0.36-18,0.72c0,0.36,18,0.36,18,0.72c0,0.36-18.01,0.76-17.99,1.12
					C1048.18,1067.55,1057.42,1071.99,1057.06,1072z"/>
			</g>
			<g>
				<path class="st2" d="M1057.06,1106.26c-30.28,0.36-30.39-18-60.68-18c-30.29,0-30.29,18-60.57,18c-30.29,0-30.29-18-60.57-18
					s-30.29,18-60.57,18c-30.29,0-30.29-18-60.57-18c-30.29,0-30.29,18-60.57,18c-30.28,0-30.28-18-60.57-18
					c-30.29,0-30.29,18-60.57,18c-30.28,0-30.28-18-60.57-18c-30.28,0-30.28,18-60.57,18c-30.29,0-30.29-18-60.57-18
					c-30.29,0-30.29,18-60.57,18c-30.29,0-30.29-18-60.57-18c-30.29,0-30.29,18-60.57,18c-30.29,0-30.29-18-60.58-18
					c-30.29,0-30.29,18-60.57,18c-30.29,0-30.29-18-60.57-18c-30.29,0-30.29,18-60.57,18c-30.29,0-30.29-18-60.58-18
					c-30.29,0-30.29,18-60.58,18s-30.19-17.64-60.47-18c-0.36,0-9.11,8.64-9.11,8.29c0-0.36,18-0.36,18-0.71c0-0.35-18-0.35-18-0.71
					c0-0.35,18-0.35,18-0.71c0-0.35-18-0.35-18-0.71c0-0.36,18-0.36,18-0.71c0-0.36-18-0.36-18-0.72c0-0.36,18-0.36,18-0.71
					c0-0.36-18-0.36-18-0.71c0-0.36,18-0.36,18-0.71c0-0.36-18-0.36-18-0.72c0-0.36,18-0.36,18-0.71c0-0.36-18-0.36-18-0.71
					c0-0.36,18-0.36,18-0.72c0-0.36-18-0.36-18-0.72c0-0.36,18-0.36,18-0.72c0-0.36-18-0.36-18-0.71c0-0.36,18-0.36,18-0.72
					c0-0.36-18-0.36-18-0.72c0-0.36,18-0.36,18-0.72c0-0.36-9.47-9.72-9.11-9.72c30.28-0.36,30.39,18,60.68,18
					c30.29,0,30.29-18,60.57-18c30.29,0,30.29,18,60.57,18c30.29,0,30.29-18,60.57-18c30.29,0,30.29,18,60.57,18
					c30.29,0,30.29-18,60.57-18c30.28,0,30.28,18,60.57,18c30.29,0,30.29-18,60.57-18c30.28,0,30.28,18,60.57,18
					c30.28,0,30.28-18,60.57-18c30.29,0,30.29,18,60.57,18c30.29,0,30.29-18,60.57-18c30.29,0,30.29,18,60.57,18
					c30.29,0,30.29-18,60.57-18c30.29,0,30.29,18,60.58,18c30.29,0,30.29-18,60.57-18c30.29,0,30.29,18,60.57,18
					c30.29,0,30.29-18,60.57-18c30.29,0,30.29,18,60.58,18c30.29,0,30.29-18,60.58-18c30.29,0,30.19,17.64,60.47,18
					c0.36,0,9.11-8.64,9.11-8.29c0,0.36-18,0.36-18,0.71c0,0.35,18,0.35,18,0.71c0,0.35-18,0.35-18,0.71c0,0.35,18,0.35,18,0.71
					c0,0.36-18,0.36-18,0.71c0,0.36,18,0.36,18,0.71c0,0.36-18,0.36-18,0.71c0,0.36,18,0.36,18,0.71c0,0.36-18,0.36-18,0.71
					c0,0.36,18,0.36,18,0.72c0,0.36-18,0.36-18,0.71c0,0.36,18,0.36,18,0.71c0,0.36-18,0.36-18,0.72c0,0.36,18,0.36,18,0.72
					c0,0.36-18,0.36-18,0.72c0,0.36,18,0.36,18,0.71c0,0.36-18,0.36-18,0.72c0,0.36,18,0.36,18,0.72c0,0.36-18.01,0.76-17.99,1.12
					C1048.18,1101.82,1057.42,1106.26,1057.06,1106.26z"/>
			</g>
			<g>
				<path class="st2" d="M1057.06,1140.53c-30.28,0.36-30.39-18-60.68-18c-30.29,0-30.29,18-60.57,18c-30.29,0-30.29-18-60.57-18
					s-30.29,18-60.57,18c-30.29,0-30.29-18-60.57-18c-30.29,0-30.29,18-60.57,18c-30.28,0-30.28-18-60.57-18
					c-30.29,0-30.29,18-60.57,18c-30.28,0-30.28-18-60.57-18c-30.28,0-30.28,18-60.57,18c-30.29,0-30.29-18-60.57-18
					c-30.29,0-30.29,18-60.57,18c-30.29,0-30.29-18-60.57-18c-30.29,0-30.29,18-60.57,18c-30.29,0-30.29-18-60.58-18
					c-30.29,0-30.29,18-60.57,18c-30.29,0-30.29-18-60.57-18c-30.29,0-30.29,18-60.57,18c-30.29,0-30.29-18-60.58-18
					c-30.29,0-30.29,18-60.58,18s-30.19-17.64-60.47-18c-0.36,0-9.11,8.64-9.11,8.29c0-0.36,18-0.36,18-0.71c0-0.35-18-0.35-18-0.71
					c0-0.35,18-0.35,18-0.71c0-0.35-18-0.35-18-0.71c0-0.36,18-0.36,18-0.71c0-0.36-18-0.36-18-0.71c0-0.36,18-0.36,18-0.71
					c0-0.36-18-0.36-18-0.71c0-0.36,18-0.36,18-0.71c0-0.36-18-0.36-18-0.72c0-0.36,18-0.36,18-0.71c0-0.36-18-0.36-18-0.71
					c0-0.36,18-0.36,18-0.72c0-0.36-18-0.36-18-0.72c0-0.36,18-0.36,18-0.72c0-0.36-18-0.36-18-0.71c0-0.36,18-0.36,18-0.72
					c0-0.36-18-0.36-18-0.72c0-0.36,18-0.36,18-0.72c0-0.36-9.47-9.72-9.11-9.72c30.28-0.36,30.39,18,60.68,18
					c30.29,0,30.29-18,60.57-18c30.29,0,30.29,18,60.57,18c30.29,0,30.29-18,60.57-18c30.29,0,30.29,18,60.57,18
					c30.29,0,30.29-18,60.57-18c30.28,0,30.28,18,60.57,18c30.29,0,30.29-18,60.57-18c30.28,0,30.28,18,60.57,18
					c30.28,0,30.28-18,60.57-18c30.29,0,30.29,18,60.57,18c30.29,0,30.29-18,60.57-18c30.29,0,30.29,18,60.57,18
					c30.29,0,30.29-18,60.57-18c30.29,0,30.29,18,60.58,18c30.29,0,30.29-18,60.57-18c30.29,0,30.29,18,60.57,18
					c30.29,0,30.29-18,60.57-18c30.29,0,30.29,18,60.58,18c30.29,0,30.29-18,60.58-18c30.29,0,30.19,17.64,60.47,18
					c0.36,0,9.11-8.64,9.11-8.29c0,0.36-18,0.36-18,0.71c0,0.35,18,0.35,18,0.71c0,0.35-18,0.35-18,0.71c0,0.35,18,0.35,18,0.71
					c0,0.36-18,0.36-18,0.71c0,0.36,18,0.36,18,0.71c0,0.36-18,0.36-18,0.71c0,0.36,18,0.36,18,0.71c0,0.36-18,0.36-18,0.71
					c0,0.36,18,0.36,18,0.72c0,0.36-18,0.36-18,0.71c0,0.36,18,0.36,18,0.71c0,0.36-18,0.36-18,0.72c0,0.36,18,0.36,18,0.72
					c0,0.36-18,0.36-18,0.72c0,0.36,18,0.36,18,0.71c0,0.36-18,0.36-18,0.72c0,0.36,18,0.36,18,0.72c0,0.36-18.01,0.76-17.99,1.12
					C1048.18,1136.08,1057.42,1140.52,1057.06,1140.53z"/>
			</g>
			<g>
				<path class="st2" d="M1057.06,1174.79c-30.28,0.36-30.39-18-60.68-18c-30.29,0-30.29,18-60.57,18c-30.29,0-30.29-18-60.57-18
					s-30.29,18-60.57,18c-30.29,0-30.29-18-60.57-18c-30.29,0-30.29,18-60.57,18c-30.28,0-30.28-18-60.57-18
					c-30.29,0-30.29,18-60.57,18c-30.28,0-30.28-18-60.57-18c-30.28,0-30.28,18-60.57,18c-30.29,0-30.29-18-60.57-18
					c-30.29,0-30.29,18-60.57,18c-30.29,0-30.29-18-60.57-18c-30.29,0-30.29,18-60.57,18c-30.29,0-30.29-18-60.58-18
					c-30.29,0-30.29,18-60.57,18c-30.29,0-30.29-18-60.57-18c-30.29,0-30.29,18-60.57,18c-30.29,0-30.29-18-60.58-18
					c-30.29,0-30.29,18-60.58,18s-30.19-17.64-60.47-18c-0.36,0-9.11,8.64-9.11,8.29c0-0.36,18-0.36,18-0.71c0-0.35-18-0.35-18-0.71
					c0-0.35,18-0.35,18-0.71c0-0.35-18-0.35-18-0.71c0-0.36,18-0.36,18-0.71c0-0.36-18-0.36-18-0.71c0-0.36,18-0.36,18-0.71
					c0-0.36-18-0.36-18-0.71c0-0.36,18-0.36,18-0.71c0-0.36-18-0.36-18-0.72c0-0.36,18-0.36,18-0.71s-18-0.36-18-0.71
					c0-0.36,18-0.36,18-0.72c0-0.36-18-0.36-18-0.72c0-0.36,18-0.36,18-0.72c0-0.36-18-0.36-18-0.71c0-0.36,18-0.36,18-0.72
					c0-0.36-18-0.36-18-0.72c0-0.36,18-0.36,18-0.72c0-0.36-9.47-9.72-9.11-9.72c30.28-0.36,30.39,18,60.68,18
					c30.29,0,30.29-18,60.57-18c30.29,0,30.29,18,60.57,18c30.29,0,30.29-18,60.57-18c30.29,0,30.29,18,60.57,18
					c30.29,0,30.29-18,60.57-18c30.28,0,30.28,18,60.57,18c30.29,0,30.29-18,60.57-18c30.28,0,30.28,18,60.57,18
					c30.28,0,30.28-18,60.57-18c30.29,0,30.29,18,60.57,18c30.29,0,30.29-18,60.57-18c30.29,0,30.29,18,60.57,18
					c30.29,0,30.29-18,60.57-18c30.29,0,30.29,18,60.58,18c30.29,0,30.29-18,60.57-18c30.29,0,30.29,18,60.57,18
					c30.29,0,30.29-18,60.57-18c30.29,0,30.29,18,60.58,18c30.29,0,30.29-18,60.58-18c30.29,0,30.19,17.64,60.47,18
					c0.36,0,9.11-8.64,9.11-8.29c0,0.36-18,0.36-18,0.71c0,0.35,18,0.35,18,0.71c0,0.35-18,0.35-18,0.71c0,0.35,18,0.35,18,0.71
					c0,0.36-18,0.36-18,0.71c0,0.36,18,0.36,18,0.72c0,0.36-18,0.36-18,0.71c0,0.36,18,0.36,18,0.71c0,0.36-18,0.36-18,0.71
					c0,0.36,18,0.36,18,0.72c0,0.36-18,0.36-18,0.71c0,0.36,18,0.36,18,0.71c0,0.36-18,0.36-18,0.72c0,0.36,18,0.36,18,0.72
					c0,0.36-18,0.36-18,0.72c0,0.36,18,0.36,18,0.71c0,0.36-18,0.36-18,0.72c0,0.36,18,0.36,18,0.72c0,0.36-18.01,0.76-17.99,1.12
					C1048.18,1170.34,1057.42,1174.78,1057.06,1174.79z"/>
			</g>
			<g>
				<path class="st2" d="M1057.06,1209.05c-30.28,0.36-30.39-18-60.68-18c-30.29,0-30.29,18-60.57,18c-30.29,0-30.29-18-60.57-18
					s-30.29,18-60.57,18c-30.29,0-30.29-18-60.57-18c-30.29,0-30.29,18-60.57,18c-30.28,0-30.28-18-60.57-18
					c-30.29,0-30.29,18-60.57,18c-30.28,0-30.28-18-60.57-18c-30.28,0-30.28,18-60.57,18c-30.29,0-30.29-18-60.57-18
					c-30.29,0-30.29,18-60.57,18c-30.29,0-30.29-18-60.57-18c-30.29,0-30.29,18-60.57,18c-30.29,0-30.29-18-60.58-18
					c-30.29,0-30.29,18-60.57,18c-30.29,0-30.29-18-60.57-18c-30.29,0-30.29,18-60.57,18c-30.29,0-30.29-18-60.58-18
					c-30.29,0-30.29,18-60.58,18s-30.19-17.64-60.47-18c-0.36,0-9.11,8.64-9.11,8.29c0-0.36,18-0.36,18-0.71c0-0.35-18-0.35-18-0.71
					c0-0.35,18-0.35,18-0.71c0-0.35-18-0.35-18-0.71c0-0.36,18-0.36,18-0.71c0-0.36-18-0.36-18-0.71c0-0.36,18-0.36,18-0.71
					c0-0.36-18-0.36-18-0.71c0-0.36,18-0.36,18-0.71c0-0.36-18-0.36-18-0.72c0-0.36,18-0.36,18-0.71c0-0.36-18-0.36-18-0.71
					c0-0.36,18-0.36,18-0.72c0-0.36-18-0.36-18-0.72c0-0.36,18-0.36,18-0.72c0-0.36-18-0.36-18-0.71c0-0.36,18-0.36,18-0.72
					c0-0.36-18-0.36-18-0.72c0-0.36,18-0.36,18-0.72c0-0.36-9.47-9.72-9.11-9.72c30.28-0.36,30.39,18,60.68,18
					c30.29,0,30.29-18,60.57-18c30.29,0,30.29,18,60.57,18c30.29,0,30.29-18,60.57-18c30.29,0,30.29,18,60.57,18
					c30.29,0,30.29-18,60.57-18c30.28,0,30.28,18,60.57,18c30.29,0,30.29-18,60.57-18c30.28,0,30.28,18,60.57,18
					c30.28,0,30.28-18,60.57-18c30.29,0,30.29,18,60.57,18c30.29,0,30.29-18,60.57-18c30.29,0,30.29,18,60.57,18
					c30.29,0,30.29-18,60.57-18c30.29,0,30.29,18,60.58,18c30.29,0,30.29-18,60.57-18c30.29,0,30.29,18,60.57,18
					c30.29,0,30.29-18,60.57-18c30.29,0,30.29,18,60.58,18c30.29,0,30.29-18,60.58-18c30.29,0,30.19,17.64,60.47,18
					c0.36,0,9.11-8.64,9.11-8.29c0,0.36-18,0.36-18,0.71c0,0.35,18,0.35,18,0.71c0,0.35-18,0.35-18,0.71c0,0.35,18,0.35,18,0.71
					c0,0.36-18,0.36-18,0.71c0,0.36,18,0.36,18,0.71c0,0.36-18,0.36-18,0.71c0,0.36,18,0.36,18,0.71c0,0.36-18,0.36-18,0.71
					c0,0.36,18,0.36,18,0.72c0,0.36-18,0.36-18,0.71c0,0.36,18,0.36,18,0.71c0,0.36-18,0.36-18,0.72c0,0.36,18,0.36,18,0.72
					c0,0.36-18,0.36-18,0.72c0,0.36,18,0.36,18,0.71c0,0.36-18,0.36-18,0.72c0,0.36,18,0.36,18,0.72c0,0.36-18.01,0.76-17.99,1.12
					C1048.18,1204.61,1057.42,1209.05,1057.06,1209.05z"/>
			</g>
			<g>
				<path class="st2" d="M1057.06,1243.32c-30.28,0.36-30.39-18-60.68-18c-30.29,0-30.29,18-60.57,18c-30.29,0-30.29-18-60.57-18
					s-30.29,18-60.57,18c-30.29,0-30.29-18-60.57-18c-30.29,0-30.29,18-60.57,18c-30.28,0-30.28-18-60.57-18
					c-30.29,0-30.29,18-60.57,18c-30.28,0-30.28-18-60.57-18c-30.28,0-30.28,18-60.57,18c-30.29,0-30.29-18-60.57-18
					c-30.29,0-30.29,18-60.57,18c-30.29,0-30.29-18-60.57-18c-30.29,0-30.29,18-60.57,18c-30.29,0-30.29-18-60.58-18
					c-30.29,0-30.29,18-60.57,18c-30.29,0-30.29-18-60.57-18c-30.29,0-30.29,18-60.57,18c-30.29,0-30.29-18-60.58-18
					c-30.29,0-30.29,18-60.58,18s-30.19-17.64-60.47-18c-0.36,0-9.11,8.64-9.11,8.29c0-0.36,18-0.36,18-0.71c0-0.35-18-0.35-18-0.71
					c0-0.35,18-0.35,18-0.71c0-0.35-18-0.35-18-0.71c0-0.36,18-0.36,18-0.71c0-0.36-18-0.36-18-0.71c0-0.36,18-0.36,18-0.71
					c0-0.36-18-0.36-18-0.71c0-0.36,18-0.36,18-0.71c0-0.36-18-0.36-18-0.72c0-0.36,18-0.36,18-0.71c0-0.36-18-0.36-18-0.71
					c0-0.36,18-0.36,18-0.72c0-0.36-18-0.36-18-0.72c0-0.36,18-0.36,18-0.72c0-0.36-18-0.36-18-0.71c0-0.36,18-0.36,18-0.72
					c0-0.36-18-0.36-18-0.72c0-0.36,18-0.36,18-0.72c0-0.36-9.47-9.72-9.11-9.72c30.28-0.36,30.39,18,60.68,18
					c30.29,0,30.29-18,60.57-18c30.29,0,30.29,18,60.57,18c30.29,0,30.29-18,60.57-18c30.29,0,30.29,18,60.57,18
					c30.29,0,30.29-18,60.57-18c30.28,0,30.28,18,60.57,18c30.29,0,30.29-18,60.57-18c30.28,0,30.28,18,60.57,18
					c30.28,0,30.28-18,60.57-18c30.29,0,30.29,18,60.57,18c30.29,0,30.29-18,60.57-18c30.29,0,30.29,18,60.57,18
					c30.29,0,30.29-18,60.57-18c30.29,0,30.29,18,60.58,18c30.29,0,30.29-18,60.57-18c30.29,0,30.29,18,60.57,18
					c30.29,0,30.29-18,60.57-18c30.29,0,30.29,18,60.58,18c30.29,0,30.29-18,60.58-18c30.29,0,30.19,17.64,60.47,18
					c0.36,0,9.11-8.64,9.11-8.29c0,0.36-18,0.36-18,0.71c0,0.35,18,0.35,18,0.71c0,0.35-18,0.35-18,0.71c0,0.35,18,0.35,18,0.71
					c0,0.36-18,0.36-18,0.71c0,0.36,18,0.36,18,0.72c0,0.36-18,0.36-18,0.71c0,0.36,18,0.36,18,0.71c0,0.36-18,0.36-18,0.71
					c0,0.36,18,0.36,18,0.72c0,0.36-18,0.36-18,0.71c0,0.36,18,0.36,18,0.71c0,0.36-18,0.36-18,0.72c0,0.36,18,0.36,18,0.72
					c0,0.36-18,0.36-18,0.72c0,0.36,18,0.36,18,0.71c0,0.36-18,0.36-18,0.72c0,0.36,18,0.36,18,0.72c0,0.36-18.01,0.76-17.99,1.12
					C1048.18,1238.87,1057.42,1243.31,1057.06,1243.32z"/>
			</g>
			<g>
				<path class="st2" d="M1057.06,1277.58c-30.28,0.36-30.39-18-60.68-18c-30.29,0-30.29,18-60.57,18c-30.29,0-30.29-18-60.57-18
					s-30.29,18-60.57,18c-30.29,0-30.29-18-60.57-18c-30.29,0-30.29,18-60.57,18c-30.28,0-30.28-18-60.57-18
					c-30.29,0-30.29,18-60.57,18c-30.28,0-30.28-18-60.57-18c-30.28,0-30.28,18-60.57,18c-30.29,0-30.29-18-60.57-18
					c-30.29,0-30.29,18-60.57,18c-30.29,0-30.29-18-60.57-18c-30.29,0-30.29,18-60.57,18c-30.29,0-30.29-18-60.58-18
					c-30.29,0-30.29,18-60.57,18c-30.29,0-30.29-18-60.57-18c-30.29,0-30.29,18-60.57,18c-30.29,0-30.29-18-60.58-18
					c-30.29,0-30.29,18-60.58,18s-30.19-17.64-60.47-18c-0.36,0-9.11,8.64-9.11,8.29c0-0.36,18-0.36,18-0.71c0-0.35-18-0.35-18-0.71
					c0-0.35,18-0.35,18-0.71c0-0.35-18-0.35-18-0.71c0-0.36,18-0.36,18-0.71c0-0.36-18-0.36-18-0.71c0-0.36,18-0.36,18-0.71
					c0-0.36-18-0.36-18-0.71c0-0.36,18-0.36,18-0.71c0-0.36-18-0.36-18-0.72c0-0.36,18-0.36,18-0.71c0-0.36-18-0.36-18-0.71
					c0-0.36,18-0.36,18-0.72c0-0.36-18-0.36-18-0.72c0-0.36,18-0.36,18-0.72c0-0.36-18-0.36-18-0.71c0-0.36,18-0.36,18-0.72
					c0-0.36-18-0.36-18-0.72c0-0.36,18-0.36,18-0.72s-9.47-9.72-9.11-9.72c30.28-0.36,30.39,18,60.68,18c30.29,0,30.29-18,60.57-18
					c30.29,0,30.29,18,60.57,18c30.29,0,30.29-18,60.57-18c30.29,0,30.29,18,60.57,18c30.29,0,30.29-18,60.57-18
					c30.28,0,30.28,18,60.57,18c30.29,0,30.29-18,60.57-18c30.28,0,30.28,18,60.57,18c30.28,0,30.28-18,60.57-18
					c30.29,0,30.29,18,60.57,18c30.29,0,30.29-18,60.57-18c30.29,0,30.29,18,60.57,18c30.29,0,30.29-18,60.57-18
					c30.29,0,30.29,18,60.58,18c30.29,0,30.29-18,60.57-18c30.29,0,30.29,18,60.57,18c30.29,0,30.29-18,60.57-18
					c30.29,0,30.29,18,60.58,18c30.29,0,30.29-18,60.58-18c30.29,0,30.19,17.64,60.47,18c0.36,0,9.11-8.64,9.11-8.29
					c0,0.36-18,0.36-18,0.71c0,0.35,18,0.35,18,0.71c0,0.35-18,0.35-18,0.71c0,0.35,18,0.35,18,0.71c0,0.36-18,0.36-18,0.71
					c0,0.36,18,0.36,18,0.71c0,0.36-18,0.36-18,0.71c0,0.36,18,0.36,18,0.71c0,0.36-18,0.36-18,0.71c0,0.36,18,0.36,18,0.72
					c0,0.36-18,0.36-18,0.71c0,0.36,18,0.36,18,0.71c0,0.36-18,0.36-18,0.72c0,0.36,18,0.36,18,0.72c0,0.36-18,0.36-18,0.72
					c0,0.36,18,0.36,18,0.71c0,0.36-18,0.36-18,0.72c0,0.36,18,0.36,18,0.72c0,0.36-18.01,0.76-17.99,1.12
					C1048.18,1273.13,1057.42,1277.57,1057.06,1277.58z"/>
			</g>
			<g>
				<path class="st2" d="M1057.06,1311.84c-30.28,0.36-30.39-18-60.68-18c-30.29,0-30.29,18-60.57,18c-30.29,0-30.29-18-60.57-18
					s-30.29,18-60.57,18c-30.29,0-30.29-18-60.57-18c-30.29,0-30.29,18-60.57,18c-30.28,0-30.28-18-60.57-18
					c-30.29,0-30.29,18-60.57,18c-30.28,0-30.28-18-60.57-18c-30.28,0-30.28,18-60.57,18c-30.29,0-30.29-18-60.57-18
					c-30.29,0-30.29,18-60.57,18c-30.29,0-30.29-18-60.57-18c-30.29,0-30.29,18-60.57,18c-30.29,0-30.29-18-60.58-18
					c-30.29,0-30.29,18-60.57,18c-30.29,0-30.29-18-60.57-18c-30.29,0-30.29,18-60.57,18c-30.29,0-30.29-18-60.58-18
					c-30.29,0-30.29,18-60.58,18s-30.19-17.64-60.47-18c-0.36,0-9.11,8.64-9.11,8.29c0-0.36,18-0.36,18-0.71c0-0.35-18-0.35-18-0.71
					c0-0.35,18-0.35,18-0.71c0-0.35-18-0.35-18-0.71c0-0.36,18-0.36,18-0.71c0-0.36-18-0.36-18-0.71c0-0.36,18-0.36,18-0.71
					c0-0.36-18-0.36-18-0.71c0-0.36,18-0.36,18-0.71c0-0.36-18-0.36-18-0.72c0-0.36,18-0.36,18-0.71c0-0.36-18-0.36-18-0.71
					c0-0.36,18-0.36,18-0.72c0-0.36-18-0.36-18-0.72c0-0.36,18-0.36,18-0.72c0-0.36-18-0.36-18-0.71c0-0.36,18-0.36,18-0.72
					c0-0.36-18-0.36-18-0.72c0-0.36,18-0.36,18-0.72c0-0.36-9.47-9.72-9.11-9.72c30.28-0.36,30.39,18,60.68,18
					c30.29,0,30.29-18,60.57-18c30.29,0,30.29,18,60.57,18c30.29,0,30.29-18,60.57-18c30.29,0,30.29,18,60.57,18
					c30.29,0,30.29-18,60.57-18c30.28,0,30.28,18,60.57,18c30.29,0,30.29-18,60.57-18c30.28,0,30.28,18,60.57,18
					c30.28,0,30.28-18,60.57-18c30.29,0,30.29,18,60.57,18c30.29,0,30.29-18,60.57-18c30.29,0,30.29,18,60.57,18
					c30.29,0,30.29-18,60.57-18c30.29,0,30.29,18,60.58,18c30.29,0,30.29-18,60.57-18c30.29,0,30.29,18,60.57,18
					c30.29,0,30.29-18,60.57-18c30.29,0,30.29,18,60.58,18c30.29,0,30.29-18,60.58-18c30.29,0,30.19,17.64,60.47,18
					c0.36,0,9.11-8.64,9.11-8.29c0,0.36-18,0.36-18,0.71c0,0.35,18,0.35,18,0.71c0,0.35-18,0.35-18,0.71c0,0.35,18,0.35,18,0.71
					c0,0.36-18,0.36-18,0.71c0,0.36,18,0.36,18,0.71c0,0.36-18,0.36-18,0.71c0,0.36,18,0.36,18,0.71c0,0.36-18,0.36-18,0.71
					c0,0.36,18,0.36,18,0.72c0,0.36-18,0.36-18,0.71c0,0.36,18,0.36,18,0.71c0,0.36-18,0.36-18,0.72c0,0.36,18,0.36,18,0.72
					c0,0.36-18,0.36-18,0.72c0,0.36,18,0.36,18,0.71c0,0.36-18,0.36-18,0.72c0,0.36,18,0.36,18,0.72c0,0.36-18.01,0.76-17.99,1.12
					C1048.18,1307.4,1057.42,1311.84,1057.06,1311.84z"/>
			</g>
		</g>
	</g>
	<g>
		<circle class="st4" cx="173.05" cy="346.26" r="20.74"/>
		<path class="st4" d="M173.05,367L173.05,367c-14.41,0-26.09,11.68-26.09,26.09v56.65c0,14.41,11.68,26.09,26.09,26.09h0
			c14.41,0,26.09-11.68,26.09-26.09V393.1C199.14,378.69,187.46,367,173.05,367z"/>
		<path class="st4" d="M173.05,453.63L173.05,453.63c-5.39,0-9.76,4.37-9.76,9.76v64.7c0,5.39,4.37,9.76,9.76,9.76h0
			c5.39,0,9.76-4.37,9.76-9.76v-64.7C182.81,458,178.44,453.63,173.05,453.63z"/>
		<path class="st5" d="M199.14,443.3h-52.61v7.29c0,14.53,11.78,26.3,26.3,26.3h0c14.53,0,26.3-11.78,26.3-26.3V443.3z"/>
		<path class="st2" d="M158.38,360.93c-8.1-8.1-8.1-21.23,0-29.33c8.1-8.1,21.23-8.1,29.33,0"/>
		<rect x="152.31" y="343.23" class="st5" width="39.85" height="5.38"/>
		<path class="st4" d="M173.05,304.98L173.05,304.98c-3.91,0-7.07,3.17-7.07,7.07v77.58c0,3.91,3.17,7.07,7.07,7.07h0
			c3.91,0,7.07-3.17,7.07-7.07v-77.58C180.12,308.14,176.96,304.98,173.05,304.98z"/>
		<circle class="st5" cx="188.9" cy="345.91" r="4.89"/>
	</g>
	<path class="st1" d="M248.68,542.35H0v-19.04h248.68c5.26,0,9.52,4.26,9.52,9.52l0,0C258.2,538.09,253.94,542.35,248.68,542.35z"/>
</g>
</svg>
