<?xml version="1.0" encoding="utf-8"?>
<!-- Generator: Adobe Illustrator 27.4.0, SVG Export Plug-In . SVG Version: 6.00 Build 0)  -->
<svg version="1.1" id="Layer_1" xmlns="http://www.w3.org/2000/svg" xmlns:xlink="http://www.w3.org/1999/xlink" x="0px" y="0px"
	 viewBox="0 0 841.89 1190.55" style="enable-background:new 0 0 841.89 1190.55;" xml:space="preserve">
<style type="text/css">
	.st0{fill:url(#SVGID_1_);}
	.st1{clip-path:url(#SVGID_00000106863979328684100620000002685881219611192713_);}
	.st2{fill:url(#SVGID_00000072251942862997531520000002263321648245889463_);}
	.st3{fill:url(#SVGID_00000163064296269696555520000000012941633973532345_);}
	.st4{fill:url(#SVGID_00000124879985321907134580000001036659922966618767_);}
	.st5{fill:url(#SVGID_00000044873441961086258900000000332441901288565166_);}
	.st6{fill:url(#SVGID_00000063593729957041099970000011008960170472492190_);}
	.st7{fill:url(#SVGID_00000094615970934093653900000005377797220499690677_);}
	.st8{fill:#FFFFFF;}
</style>
<g>
	<radialGradient id="SVGID_1_" cx="420.9449" cy="595.2756" r="515.5325" gradientUnits="userSpaceOnUse">
		<stop  offset="0" style="stop-color:#1E3647"/>
		<stop  offset="1" style="stop-color:#152431"/>
	</radialGradient>
	<rect y="0" class="st0" width="841.89" height="1190.55"/>
	<g>
		<defs>
			<rect id="SVGID_00000072278895746990775130000014656728223800141212_" y="0" width="841.89" height="1190.55"/>
		</defs>
		<clipPath id="SVGID_00000178164562275293392390000003396614195009983104_">
			<use xlink:href="#SVGID_00000072278895746990775130000014656728223800141212_"  style="overflow:visible;"/>
		</clipPath>
		<g style="clip-path:url(#SVGID_00000178164562275293392390000003396614195009983104_);">
			<g>
				
					<linearGradient id="SVGID_00000013911238037339557650000010723705118094429610_" gradientUnits="userSpaceOnUse" x1="-423.2002" y1="251.4132" x2="609.5289" y2="1284.1423">
					<stop  offset="0" style="stop-color:#48C5E2"/>
					<stop  offset="1" style="stop-color:#98C93C"/>
				</linearGradient>
				<path style="fill:url(#SVGID_00000013911238037339557650000010723705118094429610_);" d="M-70.91,566.16H3.17
					c22.73,0,39.77,4.53,51.14,13.59c11.36,9.06,17.05,22.39,17.05,39.99c0,8.55-1.67,15.81-5,21.79
					c-3.33,5.98-7.99,10.94-13.97,14.87c7.18,4.1,12.73,9.44,16.66,16.02c3.93,6.58,5.9,14.66,5.9,24.22
					c0,19.48-6.37,33.8-19.1,42.94c-12.73,9.14-30.29,13.71-52.68,13.71h-74.08V566.16z M-27.33,605.12v33.32H5.23
					c8.03,0,13.67-1.62,16.92-4.87c3.24-3.24,4.87-7.35,4.87-12.3c0-5.13-1.71-9.1-5.13-11.92c-3.42-2.82-9.06-4.23-16.92-4.23
					H-27.33z M-27.33,677.67v36.4H4.2c8.72,0,15.08-1.58,19.1-4.74c4.01-3.16,6.02-7.73,6.02-13.71c0-5.98-1.88-10.47-5.64-13.46
					c-3.76-2.99-10.51-4.49-20.25-4.49H-27.33z"/>
				
					<linearGradient id="SVGID_00000131361079520164424210000016652036685393662358_" gradientUnits="userSpaceOnUse" x1="-352.8895" y1="181.1025" x2="679.8395" y2="1213.8317">
					<stop  offset="0" style="stop-color:#48C5E2"/>
					<stop  offset="1" style="stop-color:#98C93C"/>
				</linearGradient>
				<path style="fill:url(#SVGID_00000131361079520164424210000016652036685393662358_);" d="M103.17,566.16h45.12v187.13h-45.12
					V566.16z"/>
				
					<linearGradient id="SVGID_00000065049417265396831680000000695938877551731863_" gradientUnits="userSpaceOnUse" x1="-279.7927" y1="108.0057" x2="752.9364" y2="1140.7347">
					<stop  offset="0" style="stop-color:#48C5E2"/>
					<stop  offset="1" style="stop-color:#98C93C"/>
				</linearGradient>
				<path style="fill:url(#SVGID_00000065049417265396831680000000695938877551731863_);" d="M272.79,755.85
					c-15.21,0-28.88-2.56-41.01-7.69c-12.14-5.13-22.43-12.09-30.89-20.89c-8.46-8.8-14.96-19.01-19.48-30.63
					c-4.53-11.62-6.79-23.92-6.79-36.91c0-13.5,2.39-26.15,7.18-37.94c4.78-11.79,11.41-21.96,19.87-30.51
					c8.46-8.54,18.59-15.29,30.38-20.25c11.79-4.95,24.78-7.43,38.96-7.43c18.11,0,33.75,3.42,46.91,10.25
					c13.16,6.84,24.18,15.98,33.07,27.43l-37.43,26.4c-4.45-7.01-10.21-12.39-17.3-16.15c-7.09-3.76-15.42-5.64-24.99-5.64
					c-7.18,0-13.93,1.37-20.25,4.1c-6.32,2.74-11.84,6.5-16.53,11.28c-4.7,4.79-8.42,10.47-11.15,17.05
					c-2.74,6.58-4.1,13.71-4.1,21.41c0,8.03,1.28,15.3,3.85,21.79c2.56,6.5,6.19,12.14,10.89,16.92c4.7,4.79,10.29,8.46,16.79,11.02
					c6.49,2.56,13.59,3.85,21.28,3.85c10.77,0,19.82-2.56,27.17-7.69c7.35-5.13,12.64-12.3,15.89-21.53h-52.04v-41.53h100.49v21.28
					c0,12.3-2.18,24.06-6.54,35.25c-4.36,11.2-10.51,20.98-18.46,29.35c-7.95,8.37-17.52,15.04-28.71,20
					C298.64,753.37,286.29,755.85,272.79,755.85z"/>
				
					<linearGradient id="SVGID_00000094605816842903935640000004323449364333545109_" gradientUnits="userSpaceOnUse" x1="-176.3978" y1="4.6108" x2="856.3313" y2="1037.3398">
					<stop  offset="0" style="stop-color:#48C5E2"/>
					<stop  offset="1" style="stop-color:#98C93C"/>
				</linearGradient>
				<path style="fill:url(#SVGID_00000094605816842903935640000004323449364333545109_);" d="M479.58,755.85
					c-15.21,0-28.88-2.56-41.01-7.69c-12.14-5.13-22.43-12.09-30.89-20.89c-8.46-8.8-14.96-19.01-19.48-30.63
					c-4.53-11.62-6.79-23.92-6.79-36.91c0-13.5,2.39-26.15,7.18-37.94c4.78-11.79,11.41-21.96,19.87-30.51
					c8.46-8.54,18.59-15.29,30.38-20.25c11.79-4.95,24.78-7.43,38.96-7.43c18.11,0,33.75,3.42,46.91,10.25
					c13.16,6.84,24.18,15.98,33.07,27.43l-37.43,26.4c-4.45-7.01-10.21-12.39-17.3-16.15c-7.09-3.76-15.42-5.64-24.99-5.64
					c-7.18,0-13.93,1.37-20.25,4.1c-6.32,2.74-11.84,6.5-16.53,11.28c-4.7,4.79-8.42,10.47-11.15,17.05
					c-2.74,6.58-4.1,13.71-4.1,21.41c0,8.03,1.28,15.3,3.85,21.79c2.56,6.5,6.19,12.14,10.89,16.92c4.7,4.79,10.29,8.46,16.79,11.02
					c6.49,2.56,13.59,3.85,21.28,3.85c10.77,0,19.82-2.56,27.17-7.69c7.35-5.13,12.64-12.3,15.89-21.53h-52.04v-41.53h100.49v21.28
					c0,12.3-2.18,24.06-6.54,35.25c-4.36,11.2-10.51,20.98-18.46,29.35c-7.95,8.37-17.52,15.04-28.71,20
					C505.43,753.37,493.08,755.85,479.58,755.85z"/>
				
					<linearGradient id="SVGID_00000063626118308115189520000017821535235763114173_" gradientUnits="userSpaceOnUse" x1="-85.3214" y1="-86.4655" x2="947.4077" y2="946.2635">
					<stop  offset="0" style="stop-color:#48C5E2"/>
					<stop  offset="1" style="stop-color:#98C93C"/>
				</linearGradient>
				<path style="fill:url(#SVGID_00000063626118308115189520000017821535235763114173_);" d="M596.27,566.16h129.2v41.53h-84.59
					v30.76h84.59v41.53h-84.59v31.79h84.59v41.53h-129.2V566.16z"/>
				
					<linearGradient id="SVGID_00000118369448034140555040000015960651850344063144_" gradientUnits="userSpaceOnUse" x1="-8.6352" y1="-163.1518" x2="1024.0939" y2="869.5773">
					<stop  offset="0" style="stop-color:#48C5E2"/>
					<stop  offset="1" style="stop-color:#98C93C"/>
				</linearGradient>
				<path style="fill:url(#SVGID_00000118369448034140555040000015960651850344063144_);" d="M757.45,566.16h80.49
					c11.28,0,21.28,1.71,29.99,5.13c8.72,3.42,16.06,8.03,22.05,13.84c5.98,5.81,10.51,12.6,13.59,20.38
					c3.08,7.78,4.61,16.11,4.61,24.99c0,11.96-2.69,22.77-8.08,32.43c-5.38,9.66-12.78,17.22-22.17,22.69l34.86,67.67h-49.22
					l-26.4-56.14h-35.12v56.14h-44.6V566.16z M802.06,606.92v49.73h32.56c9.57,0,16.62-2.44,21.15-7.31
					c4.53-4.87,6.79-10.81,6.79-17.82c0-7.69-2.31-13.71-6.92-18.07s-11.62-6.54-21.02-6.54H802.06z"/>
			</g>
			<g>
				<path class="st8" d="M241.3,442.98h-24.18v-8.28h57.5v8.28h-24.29v71.22h-9.04V442.98z"/>
				<path class="st8" d="M359.81,478.59h-42.58v35.61h-9.15v-79.5h9.15v35.18h42.58V434.7h9.04v79.5h-9.04V478.59z"/>
				<path class="st8" d="M409.62,434.7h9.04v79.5h-9.04V434.7z"/>
				<path class="st8" d="M459.49,434.7h10.02l44.98,65.34V434.7h8.82v79.5h-9.37l-45.52-66v66h-8.93V434.7z"/>
				<path class="st8" d="M589.04,471.62l-16.34,19.06v23.52h-8.93v-79.5h8.93v44.65l38.12-44.65h11.11l-26.46,30.71l29.29,48.79
					H614.2L589.04,471.62z"/>
			</g>
		</g>
	</g>
</g>
</svg>
